<svg id="Layer_1" data-name="Layer 1" xmlns="http://www.w3.org/2000/svg" viewBox="0 0 605.82 60.35"><defs><style>.cls-1{fill:#fff;}</style></defs><title>datascientist-logo-white</title><path class="cls-1" d="M58.41,192.63V135.76H76.73a27,27,0,0,1,13.55,3.41,24.12,24.12,0,0,1,9.4,9.65,29.11,29.11,0,0,1,3.41,14v2.61a29.33,29.33,0,0,1-3.3,14,24.14,24.14,0,0,1-9.29,9.69,26.32,26.32,0,0,1-13.38,3.53Zm13.71-46.29v35.74h4.76c3.93,0,7-1.39,9.06-4.19s3.17-7,3.17-12.49v-2.46q0-8.24-3.17-12.42c-2.1-2.78-5.18-4.18-9.21-4.18Z" transform="translate(-58.41 -133.06)"/><path class="cls-1" d="M133.33,192.63a14.61,14.61,0,0,1-1.25-3.79q-3.63,4.57-10.16,4.57a15,15,0,0,1-10.16-3.61,11.52,11.52,0,0,1-4.17-9.08q0-6.89,5.07-10.39t14.77-3.52h4.06v-2.24c0-3.9-1.68-5.84-5-5.84-3.12,0-4.69,1.54-4.69,4.63H108.6a11.79,11.79,0,0,1,5.22-10q5.21-3.82,13.3-3.83t12.77,3.95a13.71,13.71,0,0,1,4.8,10.82v18.71c.06,3.88.65,6.85,1.8,8.91v.66ZM125.09,184a7.28,7.28,0,0,0,4.08-1.06,6.55,6.55,0,0,0,2.32-2.38v-6.76h-3.83q-6.87,0-6.87,6.17a3.75,3.75,0,0,0,1.21,2.91A4.37,4.37,0,0,0,125.09,184Z" transform="translate(-58.41 -133.06)"/><path class="cls-1" d="M167.31,139.86v10.51h6.95v9.14h-6.95v19.33a4.94,4.94,0,0,0,.86,3.32c.57.63,1.71.94,3.4.94a20,20,0,0,0,3.28-.23v9.41a24.43,24.43,0,0,1-7.42,1.13q-6.8,0-10-3.2t-3.24-9.73v-21h-5.39v-9.14h5.39V139.86Z" transform="translate(-58.41 -133.06)"/><path class="cls-1" d="M203.25,192.63a14.61,14.61,0,0,1-1.25-3.79q-3.63,4.57-10.16,4.57a15,15,0,0,1-10.15-3.61,11.5,11.5,0,0,1-4.18-9.08q0-6.89,5.08-10.39t14.76-3.52h4.06v-2.24c0-3.9-1.68-5.84-5-5.84q-4.68,0-4.68,4.63H178.52a11.79,11.79,0,0,1,5.22-10q5.2-3.82,13.3-3.83t12.77,3.95a13.72,13.72,0,0,1,4.81,10.82v18.71q.07,5.82,1.79,8.91v.66ZM195,184a7.28,7.28,0,0,0,4.08-1.06,6.55,6.55,0,0,0,2.32-2.38v-6.76h-3.82q-6.89,0-6.88,6.17a3.75,3.75,0,0,0,1.21,2.91A4.37,4.37,0,0,0,195,184Z" transform="translate(-58.41 -133.06)"/><path class="cls-1" d="M251.84,177.51a5.62,5.62,0,0,0-2.13-4.68,26.47,26.47,0,0,0-7.48-3.48,72.83,72.83,0,0,1-8.75-3.48q-11.05-5.43-11-14.92a13.42,13.42,0,0,1,2.75-8.34A17.83,17.83,0,0,1,233,137a30.32,30.32,0,0,1,11.32-2,26.51,26.51,0,0,1,11,2.18,17.49,17.49,0,0,1,7.56,6.23,16.27,16.27,0,0,1,2.69,9.24H251.88a6.87,6.87,0,0,0-2.13-5.39,8.33,8.33,0,0,0-5.76-1.91,9.36,9.36,0,0,0-5.8,1.62,4.76,4.76,0,0,0,.22,8.08c1.56,1.19,4.31,2.41,8.24,3.68a50.4,50.4,0,0,1,9.69,4.08q9.21,5.31,9.21,14.65a13.86,13.86,0,0,1-5.62,11.71q-5.62,4.26-15.43,4.26A30.52,30.52,0,0,1,232,190.93a18.89,18.89,0,0,1-8.44-6.79,17.73,17.73,0,0,1-2.83-9.95h13.75q0,4.58,2.36,6.74t7.68,2.17a8.89,8.89,0,0,0,5.37-1.46A4.85,4.85,0,0,0,251.84,177.51Z" transform="translate(-58.41 -133.06)"/><path class="cls-1" d="M289.85,183.26a5.84,5.84,0,0,0,4.3-1.51,5.51,5.51,0,0,0,1.48-4.2H308A14.62,14.62,0,0,1,303,189q-5,4.46-12.84,4.45-9.21,0-14.53-5.78t-5.31-16v-.55a25.84,25.84,0,0,1,2.36-11.31,17.24,17.24,0,0,1,6.82-7.54,20.3,20.3,0,0,1,10.55-2.64q8.24,0,13.08,4.57T308,166.54H295.63a7.21,7.21,0,0,0-1.6-5,5.54,5.54,0,0,0-4.3-1.76q-5.12,0-6,6.52a44.48,44.48,0,0,0-.28,5.71q0,6.36,1.53,8.83A5.27,5.27,0,0,0,289.85,183.26Z" transform="translate(-58.41 -133.06)"/><path class="cls-1" d="M313.44,139.47a5.86,5.86,0,0,1,2-4.61,8.61,8.61,0,0,1,10.54,0,6.25,6.25,0,0,1,0,9.22,8.65,8.65,0,0,1-10.54,0A5.88,5.88,0,0,1,313.44,139.47Zm14,53.16h-13.2V150.37h13.2Z" transform="translate(-58.41 -133.06)"/><path class="cls-1" d="M356,193.41q-9.72,0-15.74-5.8t-6-15.1v-1.09a25.94,25.94,0,0,1,2.4-11.44,17.58,17.58,0,0,1,7-7.68,21.17,21.17,0,0,1,10.94-2.72q8.9,0,14.06,5.53t5.16,15.41v5.12H347.62a9.52,9.52,0,0,0,3.09,5.59,9.21,9.21,0,0,0,6.17,2,11.84,11.84,0,0,0,9.77-4.38l6,7.11a16.74,16.74,0,0,1-7,5.41A23.58,23.58,0,0,1,356,193.41Zm-1.48-33.67q-5.79,0-6.88,7.66h13.29v-1a6.53,6.53,0,0,0-1.61-4.9A6.36,6.36,0,0,0,354.5,159.74Z" transform="translate(-58.41 -133.06)"/><path class="cls-1" d="M391.18,150.37l.43,5a14.33,14.33,0,0,1,12.07-5.75q6.6,0,9.86,3.95t3.38,11.87v27.23h-13.2V166a7.16,7.16,0,0,0-1.29-4.71q-1.29-1.5-4.69-1.5a6.28,6.28,0,0,0-5.74,3v29.84H378.84V150.37Z" transform="translate(-58.41 -133.06)"/><path class="cls-1" d="M439.54,139.86v10.51h6.95v9.14h-6.95v19.33a4.89,4.89,0,0,0,.86,3.32c.57.63,1.7.94,3.4.94a20.08,20.08,0,0,0,3.28-.23v9.41a24.48,24.48,0,0,1-7.42,1.13q-6.81,0-10-3.2t-3.25-9.73v-21H421v-9.14h5.39V139.86Z" transform="translate(-58.41 -133.06)"/><path class="cls-1" d="M451.57,139.47a5.89,5.89,0,0,1,2-4.61,8.63,8.63,0,0,1,10.55,0,6.25,6.25,0,0,1,0,9.22,8.67,8.67,0,0,1-10.55,0A5.9,5.9,0,0,1,451.57,139.47Zm14,53.16h-13.2V150.37h13.2Z" transform="translate(-58.41 -133.06)"/><path class="cls-1" d="M495.79,180.76a3.06,3.06,0,0,0-1.76-2.7,26.64,26.64,0,0,0-6.68-2.11,30.22,30.22,0,0,1-8.12-2.87,13.49,13.49,0,0,1-4.89-4.32,10.29,10.29,0,0,1-1.68-5.82,11.68,11.68,0,0,1,4.81-9.59q4.8-3.76,12.58-3.77,8.35,0,13.43,3.79a11.85,11.85,0,0,1,5.08,10h-13.2c0-3.38-1.79-5.07-5.35-5.07a5.31,5.31,0,0,0-3.48,1.15,3.56,3.56,0,0,0-1.41,2.87,3.29,3.29,0,0,0,1.72,2.85,16.31,16.31,0,0,0,5.49,1.8,47.8,47.8,0,0,1,6.62,1.68q9.54,3.28,9.53,11.76a11.07,11.07,0,0,1-5.13,9.41q-5.14,3.63-13.3,3.63a23,23,0,0,1-9.69-1.95,16.17,16.17,0,0,1-6.64-5.31,12,12,0,0,1-2.38-7.07h12.3a5.06,5.06,0,0,0,1.95,4.27,8,8,0,0,0,4.81,1.35,6.32,6.32,0,0,0,4-1.09A3.5,3.5,0,0,0,495.79,180.76Z" transform="translate(-58.41 -133.06)"/><path class="cls-1" d="M530,139.86v10.51h6.95v9.14H530v19.33a4.89,4.89,0,0,0,.86,3.32c.57.63,1.7.94,3.4.94a20.08,20.08,0,0,0,3.28-.23v9.41a24.48,24.48,0,0,1-7.42,1.13q-6.81,0-10-3.2t-3.25-9.73v-21h-5.39v-9.14h5.39V139.86Z" transform="translate(-58.41 -133.06)"/><path class="cls-1" d="M564.23,180.76a3.06,3.06,0,0,0-1.76-2.7,26.64,26.64,0,0,0-6.68-2.11,30.43,30.43,0,0,1-8.13-2.87,13.54,13.54,0,0,1-4.88-4.32,10.29,10.29,0,0,1-1.68-5.82,11.68,11.68,0,0,1,4.81-9.59q4.8-3.76,12.57-3.77,8.37,0,13.44,3.79a11.85,11.85,0,0,1,5.08,10H563.8q0-5.07-5.36-5.07a5.28,5.28,0,0,0-3.47,1.15,3.56,3.56,0,0,0-1.41,2.87,3.27,3.27,0,0,0,1.72,2.85,16.31,16.31,0,0,0,5.49,1.8,47.8,47.8,0,0,1,6.62,1.68q9.52,3.28,9.53,11.76a11.06,11.06,0,0,1-5.14,9.41q-5.13,3.63-13.3,3.63a23,23,0,0,1-9.68-1.95,16.11,16.11,0,0,1-6.64-5.31,12,12,0,0,1-2.39-7.07h12.31a5.06,5.06,0,0,0,1.95,4.27,8,8,0,0,0,4.81,1.35,6.32,6.32,0,0,0,4-1.09A3.5,3.5,0,0,0,564.23,180.76Z" transform="translate(-58.41 -133.06)"/><path class="cls-1" d="M591.22,179.86a7.51,7.51,0,0,1,5.19,1.85,6.48,6.48,0,0,1,0,9.5,8.21,8.21,0,0,1-10.41,0,6.48,6.48,0,0,1,0-9.46A7.44,7.44,0,0,1,591.22,179.86Z" transform="translate(-58.41 -133.06)"/><path class="cls-1" d="M631.06,192.63a15,15,0,0,1-1.25-3.79q-3.63,4.57-10.15,4.57a15,15,0,0,1-10.16-3.61,11.5,11.5,0,0,1-4.18-9.08q0-6.89,5.08-10.39t14.76-3.52h4.07v-2.24c0-3.9-1.68-5.84-5-5.84q-4.7,0-4.69,4.63H606.34a11.78,11.78,0,0,1,5.21-10q5.22-3.82,13.3-3.83t12.77,3.95a13.72,13.72,0,0,1,4.81,10.82v18.71q.08,5.82,1.8,8.91v.66ZM622.82,184A7.28,7.28,0,0,0,626.9,183a6.58,6.58,0,0,0,2.33-2.38v-6.76H625.4q-6.89,0-6.88,6.17a3.79,3.79,0,0,0,1.21,2.91A4.37,4.37,0,0,0,622.82,184Z" transform="translate(-58.41 -133.06)"/><path class="cls-1" d="M649.62,139.47a5.85,5.85,0,0,1,2-4.61,8.61,8.61,0,0,1,10.54,0,6.23,6.23,0,0,1,0,9.22,8.65,8.65,0,0,1-10.54,0A5.87,5.87,0,0,1,649.62,139.47Zm14,53.16H650.4V150.37h13.2Z" transform="translate(-58.41 -133.06)"/></svg>