<svg xmlns="http://www.w3.org/2000/svg" viewBox="0 0 602.85 128.23"><defs><style>.a{fill:#fff;}</style></defs><title>r6x-logo-white</title><path class="a" d="M146.24,169.24H118.75v39.45h-8.06V114.06h30.74q15.13,0,23.66,7.34t8.51,20.51a25.66,25.66,0,0,1-5.33,16,27.21,27.21,0,0,1-14.3,9.6l23.66,40.29v.85h-8.51Zm-27.49-6.76h24.5q10.06,0,16.18-5.73t6.11-14.84q0-10-6.37-15.55t-17.87-5.54H118.75Z" transform="translate(-110.69 -108.86)"/><path class="a" d="M220.78,210a30.47,30.47,0,0,1-16.21-4.42,30.16,30.16,0,0,1-11.28-12.32,38.32,38.32,0,0,1-4-17.71v-2.79a41.37,41.37,0,0,1,3.93-18.26,31.26,31.26,0,0,1,10.95-12.77,27,27,0,0,1,15.21-4.65q12.81,0,20.31,8.74t7.51,23.89v4.35H197v1.49q0,12,6.85,19.92a21.82,21.82,0,0,0,17.26,8,25.25,25.25,0,0,0,11-2.28,24.3,24.3,0,0,0,8.68-7.28l4.87,3.71Q237.11,210,220.78,210Zm-1.43-66.29a19.41,19.41,0,0,0-14.78,6.43q-6,6.44-7.31,17.29h42.18v-.84q-.33-10.14-5.79-16.51A17.92,17.92,0,0,0,219.35,143.7Z" transform="translate(-110.69 -108.86)"/><path class="a" d="M271,208.69h-7.8V108.86H271Z" transform="translate(-110.69 -108.86)"/><path class="a" d="M336.53,208.69a36.53,36.53,0,0,1-1.49-9.81,27.19,27.19,0,0,1-10.43,8.22A32.09,32.09,0,0,1,311.19,210q-10.14,0-16.42-5.65A18.43,18.43,0,0,1,288.5,190a18.82,18.82,0,0,1,8.55-16.25q8.55-6,23.82-6H335v-8q0-7.55-4.64-11.86t-13.56-4.33q-8.11,0-13.45,4.16t-5.33,10l-7.8-.06q0-8.38,7.8-14.53t19.17-6.14q11.77,0,18.56,5.88t7,16.41v33.28q0,10.2,2.14,15.27v.78ZM312.1,203.1A26.17,26.17,0,0,0,326,199.33,22.16,22.16,0,0,0,335,189.26V173.79H321.06q-11.62.14-18.19,4.26t-6.57,11.34a12.55,12.55,0,0,0,4.39,9.81Q305.07,203.1,312.1,203.1Z" transform="translate(-110.69 -108.86)"/><path class="a" d="M375.53,120.37v18h14.55v6.37H375.53v46.91q0,5.85,2.11,8.72t7.05,2.86a48.89,48.89,0,0,0,6.3-.65l.33,6.32A25.73,25.73,0,0,1,383,210q-8,0-11.63-4.65t-3.64-13.68V144.74H354.79v-6.37h12.94v-18Z" transform="translate(-110.69 -108.86)"/><path class="a" d="M405.75,118.06a5.18,5.18,0,0,1,1.43-3.71,5.1,5.1,0,0,1,3.9-1.52,5.23,5.23,0,0,1,3.93,1.52,5.16,5.16,0,0,1,1.46,3.71,5.06,5.06,0,0,1-1.46,3.68,5.28,5.28,0,0,1-3.93,1.49,5.15,5.15,0,0,1-3.9-1.49A5.08,5.08,0,0,1,405.75,118.06Zm9.16,90.63h-7.8V138.37h7.8Z" transform="translate(-110.69 -108.86)"/><path class="a" d="M457.93,198l21.39-59.6h8l-26.26,70.32h-6.3l-26.39-70.32h8Z" transform="translate(-110.69 -108.86)"/><path class="a" d="M499.59,118.06a5.22,5.22,0,0,1,1.43-3.71,5.13,5.13,0,0,1,3.9-1.52,5.2,5.2,0,0,1,3.93,1.52,5.13,5.13,0,0,1,1.47,3.71,5,5,0,0,1-1.47,3.68,5.25,5.25,0,0,1-3.93,1.49,5.18,5.18,0,0,1-3.9-1.49A5.12,5.12,0,0,1,499.59,118.06Zm9.17,90.63H501V138.37h7.8Z" transform="translate(-110.69 -108.86)"/><path class="a" d="M542,120.37v18h14.56v6.37H542v46.91q0,5.85,2.11,8.72t7,2.86a49.17,49.17,0,0,0,6.31-.65l.32,6.32a25.73,25.73,0,0,1-8.32,1.09q-8,0-11.63-4.65t-3.64-13.68V144.74H521.24v-6.37h12.93v-18Z" transform="translate(-110.69 -108.86)"/><path class="a" d="M594.94,197.51l20.53-59.14h8.39l-30,82.28-1.56,3.64q-5.79,12.79-17.87,12.8a21.64,21.64,0,0,1-6-.91l-.07-6.43,4,.39a14.43,14.43,0,0,0,9.26-2.83q3.55-2.82,6-9.72l3.44-9.48-26.52-69.74h8.52Z" transform="translate(-110.69 -108.86)"/><path class="a" d="M669.61,148.18l24.57-34.12h19.36L677.86,161.7l20.67,47H680.72l-14.29-34.64-25.22,34.64H621.78l36.46-48.42L638,114.06H655.7Z" transform="translate(-110.69 -108.86)"/></svg>