<svg id="Layer_1" data-name="Layer 1" xmlns="http://www.w3.org/2000/svg" viewBox="0 0 538.52 60.35"><defs><style>.cls-1{fill:#fff;}</style></defs><title>datascientist-logo-with-numbers</title><path class="cls-1" d="M167.31,139.86v10.51h6.95v9.14h-6.95v19.33a4.94,4.94,0,0,0,.86,3.32c.57.63,1.71.94,3.4.94a20,20,0,0,0,3.28-.23v9.41a24.43,24.43,0,0,1-7.42,1.13q-6.8,0-10-3.2t-3.24-9.73v-21h-5.39v-9.14h5.39V139.86Z" transform="translate(-58.41 -133.06)"/><path class="cls-1" d="M71.77,159.13a.51.51,0,0,0-.49.28,1.84,1.84,0,0,0-.17.85v1.46a2,2,0,0,0,.16.93.55.55,0,0,0,.51.29.56.56,0,0,0,.34-.12v-3.57A.59.59,0,0,0,71.77,159.13Z" transform="translate(-58.41 -133.06)"/><path class="cls-1" d="M66.11,136.19v1.45a2,2,0,0,0,.16.94.55.55,0,0,0,.51.29.53.53,0,0,0,.5-.29,2,2,0,0,0,.16-.9v-1.4a2.68,2.68,0,0,0,0-.52H66.15A2.74,2.74,0,0,0,66.11,136.19Z" transform="translate(-58.41 -133.06)"/><path class="cls-1" d="M72.36,146.34a2.2,2.2,0,0,0,.08-.63V144.3a2,2,0,0,0-.16-.91.54.54,0,0,0-.51-.31.52.52,0,0,0-.49.28,1.86,1.86,0,0,0-.17.86v1.45a2,2,0,0,0,.16.93.54.54,0,0,0,.51.29.55.55,0,0,0,.34-.11v-.44Z" transform="translate(-58.41 -133.06)"/><path class="cls-1" d="M76.77,191.23a.51.51,0,0,0-.49.28,1.84,1.84,0,0,0-.17.85v.27h1.33v-.17a2,2,0,0,0-.16-.92A.54.54,0,0,0,76.77,191.23Z" transform="translate(-58.41 -133.06)"/><path class="cls-1" d="M66.77,175.18a.51.51,0,0,0-.49.28,1.84,1.84,0,0,0-.17.85v1.45a2,2,0,0,0,.16.94.55.55,0,0,0,.51.29.53.53,0,0,0,.5-.29,2,2,0,0,0,.16-.9v-1.4a2,2,0,0,0-.16-.92A.54.54,0,0,0,66.77,175.18Z" transform="translate(-58.41 -133.06)"/><path class="cls-1" d="M81.78,138.87a.53.53,0,0,0,.5-.29,2,2,0,0,0,.16-.9V136.3c-.43-.09-.88-.16-1.32-.22,0,0,0,.07,0,.11v1.45a2,2,0,0,0,.16.94A.55.55,0,0,0,81.78,138.87Z" transform="translate(-58.41 -133.06)"/><path class="cls-1" d="M66.77,151.11a.51.51,0,0,0-.49.28,1.84,1.84,0,0,0-.17.85v1.45a2,2,0,0,0,.16.93.58.58,0,0,0,1,0,2,2,0,0,0,.16-.9v-1.4a2,2,0,0,0-.16-.92A.54.54,0,0,0,66.77,151.11Z" transform="translate(-58.41 -133.06)"/><path class="cls-1" d="M87.44,153.14v-.81a2,2,0,0,0-.16-.92.57.57,0,0,0-.86-.17A12.67,12.67,0,0,1,87.44,153.14Z" transform="translate(-58.41 -133.06)"/><path class="cls-1" d="M96.77,183.2a.52.52,0,0,0-.49.28,1.89,1.89,0,0,0-.17.86v.26c.36-.4.72-.8,1-1.22A.5.5,0,0,0,96.77,183.2Z" transform="translate(-58.41 -133.06)"/><path class="cls-1" d="M77.35,146.37a2.39,2.39,0,0,0,.09-.66V144.3a2,2,0,0,0-.16-.91.54.54,0,0,0-.51-.31.52.52,0,0,0-.49.28,1.86,1.86,0,0,0-.17.86v1.45a2.45,2.45,0,0,0,.08.67h.54C76.94,146.34,77.14,146.36,77.35,146.37Z" transform="translate(-58.41 -133.06)"/><path class="cls-1" d="M71.77,175.18a.51.51,0,0,0-.49.28,1.84,1.84,0,0,0-.17.85v1.45a2,2,0,0,0,.16.94.55.55,0,0,0,.51.29.56.56,0,0,0,.34-.12V175.3A.59.59,0,0,0,71.77,175.18Z" transform="translate(-58.41 -133.06)"/><path class="cls-1" d="M96.77,151.11a.51.51,0,0,0-.49.28,1.84,1.84,0,0,0-.17.85v1.45a2,2,0,0,0,.16.93.58.58,0,0,0,1,0,2,2,0,0,0,.16-.9v-1.4a2,2,0,0,0-.16-.92A.54.54,0,0,0,96.77,151.11Z" transform="translate(-58.41 -133.06)"/><path class="cls-1" d="M99.68,148.82a26.58,26.58,0,0,0-2-3.06v2.07H96.4v-3.69l-.36-.4-.93.27v-1l.17-.06a24,24,0,0,0-3.9-3.1,1.71,1.71,0,0,1-1.07-.59,1.05,1.05,0,0,1-.07-.11c-.52-.29-1-.56-1.58-.82a2.16,2.16,0,0,1-.42.93,1.79,1.79,0,0,1-1.46.63,1.81,1.81,0,0,1-1.47-.63,2.7,2.7,0,0,1-.52-1.78v-.61l-1-.29v.9a2.74,2.74,0,0,1-.52,1.78,1.79,1.79,0,0,1-1.46.63,1.81,1.81,0,0,1-1.47-.63,2.7,2.7,0,0,1-.52-1.78v-1a4.33,4.33,0,0,1,0-.53c-.69-.07-1.39-.11-2.1-.14v4H76.4v-4.05h-.51l-.78.22v-.22H72.72v4.05H71.4v-4.05h-.51l-.78.22v-.22H68.69a3.66,3.66,0,0,1,.07.69v1a2.74,2.74,0,0,1-.52,1.78,1.79,1.79,0,0,1-1.46.63,1.81,1.81,0,0,1-1.47-.63,2.7,2.7,0,0,1-.52-1.78v-1a4.67,4.67,0,0,1,.06-.69H58.41v56.87H74.79v0a2.67,2.67,0,0,1,.52-1.77,1.77,1.77,0,0,1,1.46-.63,1.81,1.81,0,0,1,1.47.63,2.64,2.64,0,0,1,.51,1.73A26,26,0,0,0,90.5,189.1a24.92,24.92,0,0,0,4.31-3.19,2.64,2.64,0,0,1,0-.28v-1a2.7,2.7,0,0,1,.52-1.78,1.8,1.8,0,0,1,1.46-.62,1.91,1.91,0,0,1,1.09.3,26.65,26.65,0,0,0,1.93-3.08,29.33,29.33,0,0,0,3.3-14v-2.61A29.11,29.11,0,0,0,99.68,148.82ZM65.11,143l2.49-.87h.12v5.69H66.4v-4.2l-1.29.38Zm3.65,34.59a2.74,2.74,0,0,1-.52,1.78,1.79,1.79,0,0,1-1.46.63,1.81,1.81,0,0,1-1.47-.63,2.7,2.7,0,0,1-.52-1.78v-1a2.68,2.68,0,0,1,.52-1.78,1.77,1.77,0,0,1,1.46-.63,1.81,1.81,0,0,1,1.47.63,2.76,2.76,0,0,1,.52,1.78Zm-3.65-17.54v-1l2.49-.87h.12v5.69H66.4v-4.2Zm2.49,6.16h.12v5.68H66.4v-4.2l-1.29.38v-1Zm1.16-12.69a2.76,2.76,0,0,1-.52,1.78,1.78,1.78,0,0,1-1.46.62,1.8,1.8,0,0,1-1.47-.62,2.7,2.7,0,0,1-.52-1.78v-1a2.67,2.67,0,0,1,.52-1.77,1.77,1.77,0,0,1,1.46-.63,1.81,1.81,0,0,1,1.47.63,2.76,2.76,0,0,1,.52,1.78ZM90.11,143l2.49-.87h.12v5.69H91.4v-4.2l-1.29.38Zm-5,0,2.49-.87h.12v5.69H86.4v-4.2l-1.29.38ZM72.72,188H71.4v-4.2l-1.29.38v-1l2.49-.86h.12Zm5,0H76.4v-4.2l-1.29.38v-1l2.49-.86h.12ZM89.11,165.4q0,8.29-3.17,12.49c-2.1,2.8-5.13,4.19-9.06,4.19H72.12V180c-.11,0-.22,0-.34,0a1.81,1.81,0,0,1-1.47-.63,2.7,2.7,0,0,1-.52-1.78v-1a2.68,2.68,0,0,1,.52-1.78,1.77,1.77,0,0,1,1.46-.63c.12,0,.24,0,.35,0V171.9H71.4v-4.2l-1.29.38v-1l2-.69v-2.46c-.11,0-.22,0-.34,0a1.81,1.81,0,0,1-1.47-.63,2.69,2.69,0,0,1-.52-1.77v-1a2.7,2.7,0,0,1,.52-1.78,1.77,1.77,0,0,1,1.46-.63,2,2,0,0,1,.35,0v-2.29H71.4v-4.21l-1.29.38v-1l2-.69v-2.46a1.87,1.87,0,0,1-.34,0,1.81,1.81,0,0,1-1.47-.63,2.69,2.69,0,0,1-.52-1.77v-1a2.7,2.7,0,0,1,.52-1.78,2,2,0,0,1,2.93,0,2.74,2.74,0,0,1,.52,1.77v1a3.5,3.5,0,0,1-.1.83h1.22a4.14,4.14,0,0,1-.09-.83v-1a2.7,2.7,0,0,1,.52-1.78,2,2,0,0,1,2.93,0,2.74,2.74,0,0,1,.52,1.77v1a3.93,3.93,0,0,1-.12,1,11.86,11.86,0,0,1,2.76.67v-3.51l-1.29.38v-1l2.49-.87h.12v5.6a9.84,9.84,0,0,1,3.06,2.59,2.07,2.07,0,0,1,1-.24,1.81,1.81,0,0,1,1.47.63,2.76,2.76,0,0,1,.52,1.78v1a2.76,2.76,0,0,1-.52,1.78l0,0a28.91,28.91,0,0,1,.9,7.6Zm3.61,14.53H91.4v-4.2l-1.29.37v-1l2.49-.86h.12Zm0-8H91.4v-4.2l-1.29.38v-1l2.49-.86h.12Zm0-8H91.4v-4.2l-1.29.38v-1l2.49-.87h.12Zm1-10.35a2.76,2.76,0,0,1-.52,1.78,1.78,1.78,0,0,1-1.46.62,1.8,1.8,0,0,1-1.47-.62,2.7,2.7,0,0,1-.52-1.78v-1a2.67,2.67,0,0,1,.52-1.77,1.77,1.77,0,0,1,1.46-.63,1.81,1.81,0,0,1,1.47.63,2.76,2.76,0,0,1,.52,1.78Zm4,26.4H96.4v-4.2l-1.29.37v-1l2.49-.86h.12Zm1-10.35a2.76,2.76,0,0,1-.52,1.78,2,2,0,0,1-2.93,0,2.69,2.69,0,0,1-.52-1.77v-1a2.7,2.7,0,0,1,.52-1.78,2,2,0,0,1,2.93,0,2.76,2.76,0,0,1,.52,1.78Zm-3.65-9.52v-1l2.49-.87h.12v5.69H96.4v-4.2Zm3.65-6.53a2.76,2.76,0,0,1-.52,1.78,1.78,1.78,0,0,1-1.46.62,1.8,1.8,0,0,1-1.47-.62,2.7,2.7,0,0,1-.52-1.78v-1a2.67,2.67,0,0,1,.52-1.77,1.77,1.77,0,0,1,1.46-.63,1.81,1.81,0,0,1,1.47.63,2.76,2.76,0,0,1,.52,1.78Z" transform="translate(-58.41 -133.06)"/><path class="cls-1" d="M96.77,167.15a.51.51,0,0,0-.49.29,1.81,1.81,0,0,0-.17.85v1.45a2,2,0,0,0,.16.93.58.58,0,0,0,1,0,2,2,0,0,0,.16-.9v-1.41a2,2,0,0,0-.16-.91A.55.55,0,0,0,96.77,167.15Z" transform="translate(-58.41 -133.06)"/><path class="cls-1" d="M91.77,151.11a.51.51,0,0,0-.49.28,1.84,1.84,0,0,0-.17.85v1.45a2,2,0,0,0,.16.93.58.58,0,0,0,1,0,2,2,0,0,0,.16-.9v-1.4a2,2,0,0,0-.16-.92A.54.54,0,0,0,91.77,151.11Z" transform="translate(-58.41 -133.06)"/><path class="cls-1" d="M86.78,138.87a.53.53,0,0,0,.5-.29,1.9,1.9,0,0,0,.15-.79c-.43-.18-.87-.34-1.32-.5v.35a2,2,0,0,0,.16.94A.55.55,0,0,0,86.78,138.87Z" transform="translate(-58.41 -133.06)"/><path class="cls-1" d="M118.77,182.18a.51.51,0,0,0-.49.28,1.84,1.84,0,0,0-.17.85v1.45a2,2,0,0,0,.16.94.55.55,0,0,0,.51.29.53.53,0,0,0,.5-.29,2,2,0,0,0,.16-.9v-1.4a2,2,0,0,0-.16-.92A.54.54,0,0,0,118.77,182.18Z" transform="translate(-58.41 -133.06)"/><path class="cls-1" d="M143.78,161.92a.55.55,0,0,0,.5-.29,1.21,1.21,0,0,0,.1-.32,14.43,14.43,0,0,0-.94-3.09.44.44,0,0,0-.16.17,1.84,1.84,0,0,0-.17.85v1.45a2,2,0,0,0,.16.93A.54.54,0,0,0,143.78,161.92Z" transform="translate(-58.41 -133.06)"/><path class="cls-1" d="M123.11,183.63v1.13a2,2,0,0,0,.16.94.55.55,0,0,0,.51.29.53.53,0,0,0,.5-.29,2,2,0,0,0,.16-.9V184A4.74,4.74,0,0,1,123.11,183.63Z" transform="translate(-58.41 -133.06)"/><path class="cls-1" d="M143.77,190.2a.52.52,0,0,0-.49.28,1.89,1.89,0,0,0-.17.86v1.29h1.33v-1.21a2,2,0,0,0-.16-.91A.54.54,0,0,0,143.77,190.2Z" transform="translate(-58.41 -133.06)"/><path class="cls-1" d="M113.77,182.18a.51.51,0,0,0-.49.28,1.84,1.84,0,0,0-.17.85v1.45a2,2,0,0,0,.16.94.55.55,0,0,0,.51.29.53.53,0,0,0,.5-.29,2,2,0,0,0,.16-.9v-1.4a2,2,0,0,0-.16-.92A.54.54,0,0,0,113.77,182.18Z" transform="translate(-58.41 -133.06)"/><path class="cls-1" d="M133.77,158.11a.51.51,0,0,0-.49.28,1.84,1.84,0,0,0-.17.85v1.45a2,2,0,0,0,.16.93.58.58,0,0,0,1,0,2,2,0,0,0,.16-.9v-1.4a2,2,0,0,0-.16-.92A.54.54,0,0,0,133.77,158.11Z" transform="translate(-58.41 -133.06)"/><path class="cls-1" d="M118.11,151.22v1.45a2,2,0,0,0,.16.93.59.59,0,0,0,1,0,2,2,0,0,0,.16-.9V151.3a2.68,2.68,0,0,0-.07-.63c-.42.13-.84.26-1.25.41C118.12,151.13,118.11,151.16,118.11,151.22Z" transform="translate(-58.41 -133.06)"/><path class="cls-1" d="M123.77,150.08a.52.52,0,0,0-.49.28,1.86,1.86,0,0,0-.17.86v1.45a2,2,0,0,0,.16.93.59.59,0,0,0,1,0,2,2,0,0,0,.16-.9V151.3a2,2,0,0,0-.16-.91A.54.54,0,0,0,123.77,150.08Z" transform="translate(-58.41 -133.06)"/><path class="cls-1" d="M113.77,158.11a.51.51,0,0,0-.49.28,1.84,1.84,0,0,0-.17.85v1.45a2,2,0,0,0,.16.93.58.58,0,0,0,1,0,2,2,0,0,0,.16-.9v-1.4a2,2,0,0,0-.16-.92A.54.54,0,0,0,113.77,158.11Z" transform="translate(-58.41 -133.06)"/><path class="cls-1" d="M138.77,158.11a.51.51,0,0,0-.49.28,1.84,1.84,0,0,0-.17.85v1.45a2,2,0,0,0,.16.93.58.58,0,0,0,1,0,2,2,0,0,0,.16-.9v-1.4a2,2,0,0,0-.16-.92A.54.54,0,0,0,138.77,158.11Z" transform="translate(-58.41 -133.06)"/><path class="cls-1" d="M144.72,184v2.94H143.4v-4.2l-1.29.37v-1l2.49-.86h.09v-2.46a2,2,0,0,1-.91.2,1.81,1.81,0,0,1-1.47-.63,2.69,2.69,0,0,1-.52-1.77v-1a2.7,2.7,0,0,1,.52-1.78,1.8,1.8,0,0,1,1.46-.62,1.89,1.89,0,0,1,.92.21v-2.47H143.4v-4.2l-1.29.38v-1l2.49-.87h.09v-.84c0-.54,0-1.06-.09-1.57a2.1,2.1,0,0,1-.82.15,1.8,1.8,0,0,1-1.47-.62,2.7,2.7,0,0,1-.52-1.78v-1a2.67,2.67,0,0,1,.52-1.77,1.54,1.54,0,0,1,.63-.47,13.06,13.06,0,0,0-3.05-3.72l-.17-.13v1.43H138.4v-2.38a16,16,0,0,0-3.68-1.75v4.13H133.4v-4.2l-1.29.38v-1c-.77-.14-1.56-.25-2.39-.32v5.12H128.4v-4.2l-1.29.38v-1l1.12-.39c-.37,0-.73,0-1.11,0-.66,0-1.31,0-1.94.06l.06.06a2.74,2.74,0,0,1,.52,1.77v1a2.76,2.76,0,0,1-.52,1.78,2,2,0,0,1-2.93,0,2.69,2.69,0,0,1-.52-1.77v-1a3,3,0,0,1,.31-1.45c-.52.09-1,.2-1.52.32a3.48,3.48,0,0,1,.18,1.13v1a2.76,2.76,0,0,1-.52,1.78,2,2,0,0,1-2.93,0,2.69,2.69,0,0,1-.52-1.77v-.86a18.88,18.88,0,0,0-2.07,1.15v2H113.4v-1.09a11.72,11.72,0,0,0-4.8,9.62h13.16a4.34,4.34,0,0,1,1.64-3.84v-.87l-1.29.38v-1l2.49-.86h.12v1.77a7,7,0,0,1,1.73-.21c.15,0,.27,0,.41,0a2.2,2.2,0,0,1,.45-1,1.77,1.77,0,0,1,1.46-.63,1.81,1.81,0,0,1,1.47.63,2.76,2.76,0,0,1,.52,1.78v1c0,.14,0,.27,0,.4a7.66,7.66,0,0,1,.76,3.64v2.24h-1.77v4.07H128.4v-4.07H128l-.84.25v-.24c-.48,0-1,0-1.41,0a4.63,4.63,0,0,1,.06.67v1a2.73,2.73,0,0,1-.52,1.77,1.79,1.79,0,0,1-1.46.63,1.81,1.81,0,0,1-1.47-.63,2.69,2.69,0,0,1-.52-1.77v-1c0-.12,0-.23,0-.35-.36.05-.72.09-1.07.15a1.36,1.36,0,0,1,0,.2v1a2.73,2.73,0,0,1-.52,1.77,1.79,1.79,0,0,1-1.46.63,1.81,1.81,0,0,1-1.47-.63,2.69,2.69,0,0,1-.52-1.77v-.25a17.56,17.56,0,0,0-2.07.85v1.72H113.4v-1c-.24.15-.5.29-.74.46q-5.07,3.51-5.07,10.39a11.52,11.52,0,0,0,4.17,9.08,14.48,14.48,0,0,0,6.64,3.25v-2.3l-1.29.38v-1l2.49-.86h.12v4a17.55,17.55,0,0,0,2.2.14c.51,0,1,0,1.48-.06v-2.6l-1.29.38v-1l2.49-.86h.12v3.9a11.7,11.7,0,0,0,7.36-4.33,14.61,14.61,0,0,0,1.25,3.79h8.46v-1a2.7,2.7,0,0,1,.52-1.78,2,2,0,0,1,2.93,0,2.74,2.74,0,0,1,.52,1.77v1h.73V192A18.06,18.06,0,0,1,144.72,184Zm-29-23.46a2.76,2.76,0,0,1-.52,1.78,1.78,1.78,0,0,1-1.46.62,1.8,1.8,0,0,1-1.47-.62,2.7,2.7,0,0,1-.52-1.78v-1a2.67,2.67,0,0,1,.52-1.77,1.77,1.77,0,0,1,1.46-.63,1.81,1.81,0,0,1,1.47.63,2.76,2.76,0,0,1,.52,1.78Zm4,2.33H118.4v-4.21l-1.29.38v-1l2.49-.86h.12Zm-2.61,11.22,2.49-.86h.12v5.68H118.4v-4.2l-1.29.38Zm-5,0,2.49-.86h.12v5.68H113.4v-4.2l-1.29.38Zm3.65,10.52a2.74,2.74,0,0,1-.52,1.78,1.79,1.79,0,0,1-1.46.63,1.81,1.81,0,0,1-1.47-.63,2.7,2.7,0,0,1-.52-1.78v-1a2.68,2.68,0,0,1,.52-1.78,1.77,1.77,0,0,1,1.46-.63,1.81,1.81,0,0,1,1.47.63,2.76,2.76,0,0,1,.52,1.78Zm5,0a2.74,2.74,0,0,1-.52,1.78,1.79,1.79,0,0,1-1.46.63,1.81,1.81,0,0,1-1.47-.63,2.7,2.7,0,0,1-.52-1.78v-1a2.68,2.68,0,0,1,.52-1.78,1.77,1.77,0,0,1,1.46-.63,1.81,1.81,0,0,1,1.47.63,2.76,2.76,0,0,1,.52,1.78Zm10.73-4a6.55,6.55,0,0,1-2.32,2.38,7,7,0,0,1-3.41,1v.6a2.74,2.74,0,0,1-.52,1.78,1.79,1.79,0,0,1-1.46.63,1.81,1.81,0,0,1-1.47-.63,2.7,2.7,0,0,1-.52-1.78v-1a3.84,3.84,0,0,1,.08-.79,3.78,3.78,0,0,1-1.08-2.77q0-3.8,2.61-5.25v-.06l-1.29.38v-1l2.49-.86h.12v1a10.83,10.83,0,0,1,2.94-.37h3.83Zm3.23-9.72H133.4v-4.2l-1.29.38v-1l2.49-.87h.12Zm1-10.35a2.76,2.76,0,0,1-.52,1.78,1.78,1.78,0,0,1-1.46.62,1.8,1.8,0,0,1-1.47-.62,2.7,2.7,0,0,1-.52-1.78v-1a2.67,2.67,0,0,1,.52-1.77,1.77,1.77,0,0,1,1.46-.63,1.81,1.81,0,0,1,1.47.63,2.76,2.76,0,0,1,.52,1.78Zm4,26.4H138.4v-4.2l-1.29.37v-1l2.49-.86h.12Zm0-8H138.4v-4.2l-1.29.38v-1l2.49-.86h.12Zm0-8H138.4v-4.2l-1.29.38v-1l2.49-.87h.12Zm1-10.35a2.76,2.76,0,0,1-.52,1.78,1.78,1.78,0,0,1-1.46.62,1.8,1.8,0,0,1-1.47-.62,2.7,2.7,0,0,1-.52-1.78v-1a2.67,2.67,0,0,1,.52-1.77,1.77,1.77,0,0,1,1.46-.63,1.81,1.81,0,0,1,1.47.63,2.76,2.76,0,0,1,.52,1.78Z" transform="translate(-58.41 -133.06)"/><path class="cls-1" d="M118.78,169.94a.54.54,0,0,0,.5-.28,2.07,2.07,0,0,0,.16-.9v-1.18c-.46.1-.9.21-1.33.33v.81a2,2,0,0,0,.16.93A.55.55,0,0,0,118.78,169.94Z" transform="translate(-58.41 -133.06)"/><path class="cls-1" d="M128.77,158.11a.51.51,0,0,0-.49.28,1.35,1.35,0,0,0-.14.56,4.47,4.47,0,0,1,1.3.55v-.17a2,2,0,0,0-.16-.92A.54.54,0,0,0,128.77,158.11Z" transform="translate(-58.41 -133.06)"/><path class="cls-1" d="M123.11,167.26v1.46a2,2,0,0,0,.16.93.55.55,0,0,0,.51.29.54.54,0,0,0,.5-.28,2.07,2.07,0,0,0,.16-.9v-1.41c0-.17,0-.3,0-.43-.43,0-.86.05-1.28.09C123.13,167.09,123.11,167.17,123.11,167.26Z" transform="translate(-58.41 -133.06)"/><path class="cls-1" d="M143.77,174.15a.51.51,0,0,0-.49.29,1.81,1.81,0,0,0-.17.85v1.45a2,2,0,0,0,.16.93.58.58,0,0,0,1,0,2,2,0,0,0,.16-.9v-1.41a2,2,0,0,0-.16-.91A.55.55,0,0,0,143.77,174.15Z" transform="translate(-58.41 -133.06)"/><path class="cls-1" d="M204.77,158.11a.51.51,0,0,0-.49.28,1.84,1.84,0,0,0-.17.85v1.45a2,2,0,0,0,.16.93.58.58,0,0,0,1,0,2,2,0,0,0,.16-.9v-1.4a2,2,0,0,0-.16-.92A.54.54,0,0,0,204.77,158.11Z" transform="translate(-58.41 -133.06)"/><path class="cls-1" d="M184.77,182.18a.51.51,0,0,0-.49.28,1.84,1.84,0,0,0-.17.85v1.45a2,2,0,0,0,.16.94.55.55,0,0,0,.51.29.53.53,0,0,0,.5-.29,2,2,0,0,0,.16-.9v-1.4a2,2,0,0,0-.16-.92A.54.54,0,0,0,184.77,182.18Z" transform="translate(-58.41 -133.06)"/><path class="cls-1" d="M189.77,182.18a.51.51,0,0,0-.49.28,1.84,1.84,0,0,0-.17.85v1.45a2,2,0,0,0,.16.94.55.55,0,0,0,.51.29.53.53,0,0,0,.5-.29,2,2,0,0,0,.16-.9v-1.4a2,2,0,0,0-.16-.92A.54.54,0,0,0,189.77,182.18Z" transform="translate(-58.41 -133.06)"/><path class="cls-1" d="M194.11,184v.79a2,2,0,0,0,.16.94.55.55,0,0,0,.51.29.53.53,0,0,0,.5-.29,2,2,0,0,0,.16-.9V184c-.15,0-.28,0-.43,0A6.44,6.44,0,0,1,194.11,184Z" transform="translate(-58.41 -133.06)"/><path class="cls-1" d="M214.37,161.73c-.07-.43-.16-.85-.26-1.26v.22a2,2,0,0,0,.16.93S214.34,161.69,214.37,161.73Z" transform="translate(-58.41 -133.06)"/><path class="cls-1" d="M189.11,151.22v1.45a2,2,0,0,0,.16.93.59.59,0,0,0,1,0,2,2,0,0,0,.16-.9V151.3a2,2,0,0,0-.16-.91c-.38.1-.75.2-1.12.32A3.38,3.38,0,0,0,189.11,151.22Z" transform="translate(-58.41 -133.06)"/><path class="cls-1" d="M194.77,150.08a.52.52,0,0,0-.49.28,1.86,1.86,0,0,0-.17.86v1.45a2,2,0,0,0,.16.93.59.59,0,0,0,1,0,2,2,0,0,0,.16-.9V151.3a2,2,0,0,0-.16-.91A.54.54,0,0,0,194.77,150.08Z" transform="translate(-58.41 -133.06)"/><path class="cls-1" d="M214.28,174.44a1.81,1.81,0,0,0-.17.85v1.45a2,2,0,0,0,.16.93.51.51,0,0,0,.35.26v-3.74A.49.49,0,0,0,214.28,174.44Z" transform="translate(-58.41 -133.06)"/><path class="cls-1" d="M215.28,190.51a.54.54,0,0,0-.51-.31.52.52,0,0,0-.49.28,1.89,1.89,0,0,0-.17.86v1.29h1.33v-1.21A2,2,0,0,0,215.28,190.51Z" transform="translate(-58.41 -133.06)"/><path class="cls-1" d="M184.77,158.11a.51.51,0,0,0-.49.28,1.84,1.84,0,0,0-.17.85v1.45a2,2,0,0,0,.16.93.58.58,0,0,0,1,0,2,2,0,0,0,.16-.9v-1.4a2,2,0,0,0-.16-.92A.54.54,0,0,0,184.77,158.11Z" transform="translate(-58.41 -133.06)"/><path class="cls-1" d="M194.11,167.26v1.46a2,2,0,0,0,.16.93.55.55,0,0,0,.51.29.54.54,0,0,0,.5-.28,2.07,2.07,0,0,0,.16-.9v-1.41a2.37,2.37,0,0,0,0-.49c-.43,0-.84,0-1.26.07C194.13,167,194.11,167.14,194.11,167.26Z" transform="translate(-58.41 -133.06)"/><path class="cls-1" d="M212.79,192.63v-1a2.7,2.7,0,0,1,.52-1.78,1.8,1.8,0,0,1,1.46-.62,2.14,2.14,0,0,1,.58.08,20.64,20.64,0,0,1-.46-2.34h-.49v-4.2l-1.29.37v-1l1.51-.52V179a1.75,1.75,0,0,1-1.31-.62,2.69,2.69,0,0,1-.52-1.77v-1a2.7,2.7,0,0,1,.52-1.78,1.76,1.76,0,0,1,1.31-.61v-2.27h-.22v-4.2l-1.29.38v-1l1.51-.53v-1.18c0-.49-.05-1-.09-1.44a1.73,1.73,0,0,1-1.22-.6,2.7,2.7,0,0,1-.52-1.78v-1a2.89,2.89,0,0,1,.4-1.6,12.56,12.56,0,0,0-2.47-3.5v.44H209.4v-1.61a15.14,15.14,0,0,0-3.68-2.13v3.74H204.4v-4.2l-1.29.38v-.74a19.82,19.82,0,0,0-2.39-.45v5H199.4v-4.2l-1.29.38v-1l1-.35c-.67,0-1.37-.08-2.08-.08-.31,0-.59,0-.89,0l.09.09a2.74,2.74,0,0,1,.52,1.77v1a2.76,2.76,0,0,1-.52,1.78,2,2,0,0,1-2.93,0,2.69,2.69,0,0,1-.52-1.77v-1a2.78,2.78,0,0,1,.44-1.65c-.6.07-1.18.17-1.74.28a3.28,3.28,0,0,1,.27,1.37v1a2.76,2.76,0,0,1-.52,1.78,2,2,0,0,1-2.93,0,2.69,2.69,0,0,1-.52-1.77v-1a2.83,2.83,0,0,1,0-.29,18.21,18.21,0,0,0-2.09,1v2.66H184.4V153c-.22.14-.45.28-.66.44a11.79,11.79,0,0,0-5.22,10h13.17c0-2.35.91-3.8,2.71-4.36v-.35l-1.29.38v-1l2.49-.86h.12v1.6c.22,0,.42,0,.65,0a6.53,6.53,0,0,1,1.46.16,2.31,2.31,0,0,1,.48-1.17,1.77,1.77,0,0,1,1.46-.63,1.81,1.81,0,0,1,1.47.63,2.76,2.76,0,0,1,.52,1.78v1a2.76,2.76,0,0,1-.52,1.78l-.07.06a9.82,9.82,0,0,1,.24,2.2v2.24h-.69v4.07H199.4v-4.07H199l-.84.25v-.25h-.76l-.66,0a3.66,3.66,0,0,1,.07.69v1a2.73,2.73,0,0,1-.52,1.77,1.79,1.79,0,0,1-1.46.63,1.81,1.81,0,0,1-1.47-.63,2.69,2.69,0,0,1-.52-1.77v-1a3.68,3.68,0,0,1,0-.49l-1.09.14c0,.12,0,.23,0,.35v1a2.73,2.73,0,0,1-.52,1.77,1.79,1.79,0,0,1-1.46.63,1.81,1.81,0,0,1-1.47-.63,2.69,2.69,0,0,1-.52-1.77V168a20.08,20.08,0,0,0-2.07.69v2.21H184.4v-1.61a15.09,15.09,0,0,0-1.81,1.06q-5.09,3.51-5.08,10.39a11.5,11.5,0,0,0,4.18,9.08,14.49,14.49,0,0,0,7.71,3.44v-2.49l-1.29.38v-1l2.49-.86h.12v4.1c.37,0,.74,0,1.12,0a16.08,16.08,0,0,0,2.56-.21v-2.45l-1.29.38v-1l2.49-.86h.12v3.65a11.49,11.49,0,0,0,6.28-4.08,14.61,14.61,0,0,0,1.25,3.79Zm-26-32.1a2.76,2.76,0,0,1-.52,1.78,1.78,1.78,0,0,1-1.46.62,1.8,1.8,0,0,1-1.47-.62,2.7,2.7,0,0,1-.52-1.78v-1a2.67,2.67,0,0,1,.52-1.77,1.77,1.77,0,0,1,1.46-.63,1.81,1.81,0,0,1,1.47.63,2.76,2.76,0,0,1,.52,1.78Zm4,2.33H189.4v-4.21l-1.29.38v-1l2.49-.86h.12Zm-2.61,11.22,2.49-.86h.12v5.68H189.4v-4.2l-1.29.38Zm-5,0,2.49-.86h.12v5.68H184.4v-4.2l-1.29.38Zm3.65,10.52a2.74,2.74,0,0,1-.52,1.78,1.79,1.79,0,0,1-1.46.63,1.81,1.81,0,0,1-1.47-.63,2.7,2.7,0,0,1-.52-1.78v-1a2.68,2.68,0,0,1,.52-1.78,1.77,1.77,0,0,1,1.46-.63,1.81,1.81,0,0,1,1.47.63,2.76,2.76,0,0,1,.52,1.78Zm14.65-4a6.55,6.55,0,0,1-2.32,2.38,6.39,6.39,0,0,1-2.33.89v.73a2.74,2.74,0,0,1-.52,1.78,1.79,1.79,0,0,1-1.46.63,1.81,1.81,0,0,1-1.47-.63,2.7,2.7,0,0,1-.52-1.78v-1.08a3.86,3.86,0,0,1-.87-.6,2.79,2.79,0,0,1-.28-.32,4.08,4.08,0,0,1,.12,1v1a2.74,2.74,0,0,1-.52,1.78,1.79,1.79,0,0,1-1.46.63,1.81,1.81,0,0,1-1.47-.63,2.7,2.7,0,0,1-.52-1.78v-1a2.68,2.68,0,0,1,.52-1.78,1.77,1.77,0,0,1,1.46-.63,1.94,1.94,0,0,1,1.22.39,4.18,4.18,0,0,1-.28-1.54c0-2.41.81-4.1,2.4-5.1v-.83l2.49-.86h.12V174a12,12,0,0,1,1.87-.15h3.82Zm4.31-9.72H204.4v-4.2l-1.29.38v-1l2.49-.87h.12Zm1-10.35a2.76,2.76,0,0,1-.52,1.78,1.78,1.78,0,0,1-1.46.62,1.8,1.8,0,0,1-1.47-.62,2.7,2.7,0,0,1-.52-1.78v-1a2.67,2.67,0,0,1,.52-1.77,1.77,1.77,0,0,1,1.46-.63,1.81,1.81,0,0,1,1.47.63,2.76,2.76,0,0,1,.52,1.78Zm4,26.4H209.4v-4.2l-1.29.37v-1l2.49-.86h.12Zm0-8H209.4v-4.2l-1.29.38v-1l2.49-.86h.12Zm0-8H209.4v-4.2l-1.29.38v-1l2.49-.87h.12Zm1-10.35a2.76,2.76,0,0,1-.52,1.78,1.78,1.78,0,0,1-1.46.62,1.8,1.8,0,0,1-1.47-.62,2.7,2.7,0,0,1-.52-1.78v-1a2.67,2.67,0,0,1,.52-1.77,1.77,1.77,0,0,1,1.46-.63,1.81,1.81,0,0,1,1.47.63,2.76,2.76,0,0,1,.52,1.78Z" transform="translate(-58.41 -133.06)"/><path class="cls-1" d="M209.77,158.11a.51.51,0,0,0-.49.28,1.84,1.84,0,0,0-.17.85v1.45a2,2,0,0,0,.16.93.58.58,0,0,0,1,0,2,2,0,0,0,.16-.9v-1.4a2,2,0,0,0-.16-.92A.54.54,0,0,0,209.77,158.11Z" transform="translate(-58.41 -133.06)"/><path class="cls-1" d="M199.77,158.11a.51.51,0,0,0-.49.28,1.84,1.84,0,0,0-.17.85v.13a3.85,3.85,0,0,1,1.33,1.24v-1.28a2,2,0,0,0-.16-.92A.54.54,0,0,0,199.77,158.11Z" transform="translate(-58.41 -133.06)"/><path class="cls-1" d="M189.78,169.94a.54.54,0,0,0,.5-.28,2.07,2.07,0,0,0,.16-.9v-1.4c-.46.08-.9.17-1.33.27v1.09a2,2,0,0,0,.16.93A.55.55,0,0,0,189.78,169.94Z" transform="translate(-58.41 -133.06)"/><path class="cls-1" d="M250.77,148.11a.51.51,0,0,0-.49.28,1.84,1.84,0,0,0-.17.85v1.45a2,2,0,0,0,.16.93.58.58,0,0,0,1,0,2,2,0,0,0,.16-.9v-1.4a2,2,0,0,0-.16-.92A.54.54,0,0,0,250.77,148.11Z" transform="translate(-58.41 -133.06)"/><path class="cls-1" d="M265.77,164.15a.51.51,0,0,0-.49.29,1.81,1.81,0,0,0-.17.85v1.45a2,2,0,0,0,.16.93.58.58,0,0,0,1,0,2,2,0,0,0,.16-.9v-1.41a2,2,0,0,0-.16-.91A.55.55,0,0,0,265.77,164.15Z" transform="translate(-58.41 -133.06)"/><path class="cls-1" d="M241.28,175.7a2,2,0,0,0,.16-.9v-.61h-.81c0,.61,0,1.2.09,1.79h.06A.53.53,0,0,0,241.28,175.7Z" transform="translate(-58.41 -133.06)"/><path class="cls-1" d="M260.78,135.87a.53.53,0,0,0,.5-.29,1.72,1.72,0,0,0,.13-.49c-.43,0-.84.07-1.26.12a1.46,1.46,0,0,0,.12.37A.55.55,0,0,0,260.78,135.87Z" transform="translate(-58.41 -133.06)"/><path class="cls-1" d="M265.78,135.87a.53.53,0,0,0,.5-.29,1.87,1.87,0,0,0,.13-.52c-.42,0-.84-.05-1.27-.06a1.66,1.66,0,0,0,.13.58A.55.55,0,0,0,265.78,135.87Z" transform="translate(-58.41 -133.06)"/><path class="cls-1" d="M245.11,142.67a2,2,0,0,0,.16.93.59.59,0,0,0,1,0,2,2,0,0,0,.16-.9V141.3c0-.07,0-.12,0-.19a15.3,15.3,0,0,0-1.32,1.49Z" transform="translate(-58.41 -133.06)"/><path class="cls-1" d="M245.78,159.94a.54.54,0,0,0,.5-.28,2.07,2.07,0,0,0,.16-.9v-1.41a2,2,0,0,0-.16-.92.54.54,0,0,0-.51-.3.51.51,0,0,0-.49.28,1.84,1.84,0,0,0-.17.85v1.46a2,2,0,0,0,.15.89l.14.18A.55.55,0,0,0,245.78,159.94Z" transform="translate(-58.41 -133.06)"/><path class="cls-1" d="M276.26,162.79a50.53,50.53,0,0,0-9.54-4v2.12H265.4v-2.56c-1.39-.48-2.62-.95-3.68-1.41v4H260.4v-4.2l-1.29.38v-1l.52-.18a11.76,11.76,0,0,1-1.3-.85,6.15,6.15,0,0,1-1.92-2.19,2.08,2.08,0,0,1-.63.09,1.8,1.8,0,0,1-1.47-.62,2.7,2.7,0,0,1-.52-1.78v-1a2.67,2.67,0,0,1,.52-1.77,1.77,1.77,0,0,1,1.46-.63,1.81,1.81,0,0,1,1.47.63s0,0,0,0a6.56,6.56,0,0,1,.86-.79,9.38,9.38,0,0,1,5.8-1.62,8.33,8.33,0,0,1,5.77,1.91,6.9,6.9,0,0,1,2.12,5.39h13.68a16.27,16.27,0,0,0-2.7-9.24,17.49,17.49,0,0,0-7.56-6.23,24.93,24.93,0,0,0-7.53-2,2.25,2.25,0,0,1-.45,1.09,1.79,1.79,0,0,1-1.46.63,1.81,1.81,0,0,1-1.47-.63,2.35,2.35,0,0,1-.49-1.28l-1.1,0a2.32,2.32,0,0,1-.48,1.25,1.79,1.79,0,0,1-1.46.63,1.81,1.81,0,0,1-1.47-.63,2.24,2.24,0,0,1-.41-.88l-1.32.23a1.91,1.91,0,0,1-.34.65,1.79,1.79,0,0,1-1.46.63,1.82,1.82,0,0,1-1.3-.47c-.54.18-1.07.36-1.58.57a19.65,19.65,0,0,0-5.4,3.13,3.22,3.22,0,0,1,.26,1.35v1a2.76,2.76,0,0,1-.52,1.78,1.85,1.85,0,0,1-3.08-.24,13.46,13.46,0,0,0-1.81,6.9,14.09,14.09,0,0,0,1.45,6.34,2.6,2.6,0,0,1,.51-1.55,1.77,1.77,0,0,1,1.46-.63,1.81,1.81,0,0,1,1.47.63,2.77,2.77,0,0,1,.52,1.78v1a2.73,2.73,0,0,1-.52,1.77,1.63,1.63,0,0,1-.89.55,23.92,23.92,0,0,0,7.06,5,64,64,0,0,0,7,2.87v-4l-1.29.38v-1l2.49-.86h.12v5.68h-.87l1.31.45a26.61,26.61,0,0,1,7.48,3.48,5.64,5.64,0,0,1,2.12,4.68,4.83,4.83,0,0,1-2,4.13,6.85,6.85,0,0,1-2,1h0a2.76,2.76,0,0,1-.52,1.78,2,2,0,0,1-2.93,0,2.46,2.46,0,0,1-.49-1.32c-3.23-.08-5.59-.79-7.07-2.15s-2.37-3.69-2.37-6.74h-6.62v.41a2.74,2.74,0,0,1-.52,1.78,1.79,1.79,0,0,1-1.46.63,1.81,1.81,0,0,1-1.47-.63,2.7,2.7,0,0,1-.52-1.78v-.41h-1v.41a2.74,2.74,0,0,1-.52,1.78,1.77,1.77,0,0,1-1.42.62,18.43,18.43,0,0,0,.49,2.37l.29-.1h.12v1.4a17.6,17.6,0,0,0,1.74,3.47,17,17,0,0,0,2.66,3.1,1.73,1.73,0,0,1,1.12.6,2.08,2.08,0,0,1,.31.57,22,22,0,0,0,4.35,2.52,30.52,30.52,0,0,0,12.52,2.48q9.81,0,15.43-4.26a13.87,13.87,0,0,0,5.63-11.71Q285.48,168.1,276.26,162.79ZM264.11,140l2.49-.87h.12v5.69H265.4v-4.2l-1.29.38Zm-5,0,2.49-.87h.12v5.69H260.4v-4.2l-1.29.38Zm-5,0,2.49-.87h.12v5.69H255.4v-4.2l-1.29.38Zm-7.39,12.85H245.4v-4.21l-1.29.38v-1l2.49-.86h.12ZM249.11,140l2.49-.87h.12v5.69H250.4v-4.2l-1.29.38Zm2.61,20.87H250.4v-4.2l-1.29.38v-1l2.49-.87h.12Zm1-10.35a2.76,2.76,0,0,1-.52,1.78,1.78,1.78,0,0,1-1.46.62,1.8,1.8,0,0,1-1.47-.62,2.7,2.7,0,0,1-.52-1.78v-1a2.67,2.67,0,0,1,.52-1.77,1.77,1.77,0,0,1,1.46-.63,1.81,1.81,0,0,1,1.47.63,2.76,2.76,0,0,1,.52,1.78Zm4,10.35H255.4v-4.2l-1.29.38v-1l2.49-.87h.12Zm11,5.7a2.76,2.76,0,0,1-.52,1.78,2,2,0,0,1-2.93,0,2.69,2.69,0,0,1-.52-1.77v-1a2.7,2.7,0,0,1,.52-1.78,2,2,0,0,1,2.93,0,2.76,2.76,0,0,1,.52,1.78Zm-21,18.37H245.4v-4.2l-1.29.38v-1l2.49-.86h.12Z" transform="translate(-58.41 -133.06)"/><path class="cls-1" d="M245.78,176a.53.53,0,0,0,.5-.29,2,2,0,0,0,.16-.9v-.61h-1.33v.57a2,2,0,0,0,.16.94A.55.55,0,0,0,245.78,176Z" transform="translate(-58.41 -133.06)"/><path class="cls-1" d="M256.28,148.41a.54.54,0,0,0-.51-.3.51.51,0,0,0-.49.28,1.84,1.84,0,0,0-.17.85v1.45a2,2,0,0,0,.16.93.54.54,0,0,0,.51.3.65.65,0,0,0,.29-.07,4.15,4.15,0,0,1-.09-.78,4.77,4.77,0,0,1,.44-2A2,2,0,0,0,256.28,148.41Z" transform="translate(-58.41 -133.06)"/><path class="cls-1" d="M265.78,184a.55.55,0,0,0,.5-.29,2,2,0,0,0,.15-.8,10.59,10.59,0,0,1-1.3.13,1.76,1.76,0,0,0,.14.66A.54.54,0,0,0,265.78,184Z" transform="translate(-58.41 -133.06)"/><path class="cls-1" d="M295.77,172.18a.51.51,0,0,0-.49.28,1.84,1.84,0,0,0-.17.85v1.45a2,2,0,0,0,.16.94.55.55,0,0,0,.51.29.53.53,0,0,0,.5-.29,2,2,0,0,0,.16-.9v-1.4a2,2,0,0,0-.16-.92A.54.54,0,0,0,295.77,172.18Z" transform="translate(-58.41 -133.06)"/><path class="cls-1" d="M300.77,172.18a.51.51,0,0,0-.49.28,1.84,1.84,0,0,0-.17.85v1.45a2,2,0,0,0,.16.94.55.55,0,0,0,.51.29.53.53,0,0,0,.5-.29,2,2,0,0,0,.16-.9v-1.4a2,2,0,0,0-.16-.92A.54.54,0,0,0,300.77,172.18Z" transform="translate(-58.41 -133.06)"/><path class="cls-1" d="M315.78,151.92a.55.55,0,0,0,.5-.29,2,2,0,0,0,.16-.9v-.28c-.43-.12-.88-.24-1.33-.33v.57a2,2,0,0,0,.16.93A.54.54,0,0,0,315.78,151.92Z" transform="translate(-58.41 -133.06)"/><path class="cls-1" d="M326.28,180.51a.54.54,0,0,0-.51-.31.52.52,0,0,0-.49.28,1.89,1.89,0,0,0-.17.86v1.45a2,2,0,0,0,.16.93.58.58,0,0,0,1,0,2,2,0,0,0,.16-.9v-1.41A2,2,0,0,0,326.28,180.51Z" transform="translate(-58.41 -133.06)"/><path class="cls-1" d="M310.78,151.92a.55.55,0,0,0,.5-.29,2,2,0,0,0,.16-.9v-1.09c-.44,0-.88,0-1.33,0v1.1a2,2,0,0,0,.16.93A.54.54,0,0,0,310.78,151.92Z" transform="translate(-58.41 -133.06)"/><path class="cls-1" d="M300.77,156.13a.51.51,0,0,0-.49.28,1.84,1.84,0,0,0-.17.85v1.46a2,2,0,0,0,.16.93.55.55,0,0,0,.51.29.54.54,0,0,0,.5-.28,2.07,2.07,0,0,0,.16-.9v-1.41a2,2,0,0,0-.16-.92A.54.54,0,0,0,300.77,156.13Z" transform="translate(-58.41 -133.06)"/><path class="cls-1" d="M314.07,181.75a5.84,5.84,0,0,1-4.3,1.51,6.09,6.09,0,0,1-3-.73V185H305.4v-3.51a4.2,4.2,0,0,1-.42-.57l-.87.26v-1l.41-.14q-1.11-2.6-1.11-8a46.76,46.76,0,0,1,.27-5.71,13.77,13.77,0,0,1,.43-2v-.18l.06,0a6.44,6.44,0,0,1,1.94-3.13l-.33,0a1.81,1.81,0,0,1-1.47-.63,2.69,2.69,0,0,1-.52-1.77v-1a2.7,2.7,0,0,1,.52-1.78,1.77,1.77,0,0,1,1.46-.63,1.81,1.81,0,0,1,1.47.63,2.77,2.77,0,0,1,.52,1.78v1a2.88,2.88,0,0,1-.4,1.59,6.13,6.13,0,0,1,2.3-.41c.26,0,.5,0,.74.06v-3.12l-1.29.38v-1l2.49-.87h.12v4.89A5,5,0,0,1,314,161.5a7.21,7.21,0,0,1,1.6,5h4.85V164.7l-1.29.38v-1l2.49-.86h.12v3.32h2.07v-1a2.7,2.7,0,0,1,.52-1.78,2,2,0,0,1,2.93,0,2.76,2.76,0,0,1,.52,1.78v1h.14a19.14,19.14,0,0,0-1.18-6.89v1.23H325.4V157c-.06-.1-.11-.2-.18-.3l-1.11.33v-1l.49-.17a14.09,14.09,0,0,0-1.55-1.74,14.6,14.6,0,0,0-1.63-1.31,2.47,2.47,0,0,1-.64.09,1.8,1.8,0,0,1-1.47-.62,2.22,2.22,0,0,1-.43-1c-.37-.17-.76-.32-1.15-.46a2.44,2.44,0,0,1-.49,1.43,1.78,1.78,0,0,1-1.46.62,1.8,1.8,0,0,1-1.47-.62,2.7,2.7,0,0,1-.52-1.78v-.67c-.34-.05-.69-.08-1-.12v.79a2.76,2.76,0,0,1-.52,1.78,1.78,1.78,0,0,1-1.46.62,1.8,1.8,0,0,1-1.47-.62,2.7,2.7,0,0,1-.52-1.78v-.91c-.71,0-1.39.09-2.07.17v3.07H305.4V150a19.84,19.84,0,0,0-3.68,1.08v1.78H300.4v-1.17c-.33.17-.66.34-1,.53a16.76,16.76,0,0,0-4.11,3.42l1.29-.45h.12v5.69H295.4v-4.2l-1.17.34a19,19,0,0,0-1.63,2.74,25.84,25.84,0,0,0-2.36,11.31v.55q0,10.23,5.31,16a17.3,17.3,0,0,0,9.32,5.23,1.65,1.65,0,0,1-.56-.43,2.7,2.7,0,0,1-.52-1.78v-1a2.67,2.67,0,0,1,.52-1.77,1.77,1.77,0,0,1,1.46-.63,1.81,1.81,0,0,1,1.47.63,2.76,2.76,0,0,1,.52,1.78v1a2.76,2.76,0,0,1-.52,1.78,1.78,1.78,0,0,1-1.46.62h-.07a25.38,25.38,0,0,0,4.38.36q7.85,0,12.83-4.45a15,15,0,0,0,3.17-4,1.55,1.55,0,0,1-.31,0,1.81,1.81,0,0,1-1.47-.63,2.69,2.69,0,0,1-.52-1.77v-1a2.7,2.7,0,0,1,.52-1.78,2,2,0,0,1,2.93,0,2.23,2.23,0,0,1,.39.77,17.54,17.54,0,0,0,.27-3H315.55A5.48,5.48,0,0,1,314.07,181.75Zm5-25.69,2.49-.87h.12v5.69H320.4v-4.2l-1.29.38Zm-5,0,2.49-.87h.12v5.69H315.4v-4.2l-1.29.38Zm-20,8,2.49-.86h.12v5.68H295.4v-4.2l-1.29.38Zm3.65,10.52a2.74,2.74,0,0,1-.52,1.78,1.79,1.79,0,0,1-1.46.63,1.81,1.81,0,0,1-1.47-.63,2.7,2.7,0,0,1-.52-1.78v-1a2.68,2.68,0,0,1,.52-1.78,1.77,1.77,0,0,1,1.46-.63,1.81,1.81,0,0,1,1.47.63,2.76,2.76,0,0,1,.52,1.78Zm4,10.35H300.4v-4.2l-1.29.38v-1l2.49-.86h.12Zm1-10.35a2.74,2.74,0,0,1-.52,1.78,1.79,1.79,0,0,1-1.46.63,1.81,1.81,0,0,1-1.47-.63,2.7,2.7,0,0,1-.52-1.78v-1a2.68,2.68,0,0,1,.52-1.78,1.77,1.77,0,0,1,1.46-.63,1.81,1.81,0,0,1,1.47.63,2.76,2.76,0,0,1,.52,1.78Zm-3.65-9.52v-1l2.49-.86h.12v5.68H300.4v-4.2Zm3.65-6.52a2.73,2.73,0,0,1-.52,1.77,1.79,1.79,0,0,1-1.46.63,1.81,1.81,0,0,1-1.47-.63,2.69,2.69,0,0,1-.52-1.77v-1a2.7,2.7,0,0,1,.52-1.78,1.77,1.77,0,0,1,1.46-.63,1.81,1.81,0,0,1,1.47.63,2.77,2.77,0,0,1,.52,1.78Z" transform="translate(-58.41 -133.06)"/><path class="cls-1" d="M325.77,164.15a.51.51,0,0,0-.49.29,1.81,1.81,0,0,0-.17.85v1.25h1.33v-1.17a2,2,0,0,0-.16-.91A.55.55,0,0,0,325.77,164.15Z" transform="translate(-58.41 -133.06)"/><path class="cls-1" d="M306.28,156.43a.54.54,0,0,0-.51-.3.51.51,0,0,0-.49.28,1.84,1.84,0,0,0-.17.85v1.46a2,2,0,0,0,.16.93.55.55,0,0,0,.51.29.54.54,0,0,0,.5-.28,2.07,2.07,0,0,0,.16-.9v-1.41A2,2,0,0,0,306.28,156.43Z" transform="translate(-58.41 -133.06)"/><path class="cls-1" d="M305.78,192a.55.55,0,0,0,.5-.29,2,2,0,0,0,.16-.9v-1.4a2,2,0,0,0-.16-.92.54.54,0,0,0-.51-.3.51.51,0,0,0-.49.28,1.84,1.84,0,0,0-.17.85v1.45a2,2,0,0,0,.16.93A.54.54,0,0,0,305.78,192Z" transform="translate(-58.41 -133.06)"/><path class="cls-1" d="M338.77,156.13a.51.51,0,0,0-.49.28,1.84,1.84,0,0,0-.17.85v1.46a2,2,0,0,0,.16.93.55.55,0,0,0,.51.29.54.54,0,0,0,.5-.28,2.07,2.07,0,0,0,.16-.9v-1.41a2,2,0,0,0-.16-.92A.54.54,0,0,0,338.77,156.13Z" transform="translate(-58.41 -133.06)"/><path class="cls-1" d="M338.77,172.18a.51.51,0,0,0-.49.28,1.84,1.84,0,0,0-.17.85v1.45a2,2,0,0,0,.16.94.55.55,0,0,0,.51.29.53.53,0,0,0,.5-.29,2,2,0,0,0,.16-.9v-1.4a2,2,0,0,0-.16-.92A.54.54,0,0,0,338.77,172.18Z" transform="translate(-58.41 -133.06)"/><path class="cls-1" d="M343.77,172.18a.51.51,0,0,0-.49.28,1.84,1.84,0,0,0-.17.85v1.45a2,2,0,0,0,.16.94.55.55,0,0,0,.51.29.53.53,0,0,0,.5-.29,2,2,0,0,0,.16-.9v-1.4a2,2,0,0,0-.16-.92A.54.54,0,0,0,343.77,172.18Z" transform="translate(-58.41 -133.06)"/><path class="cls-1" d="M343.77,156.13a.51.51,0,0,0-.49.28,1.84,1.84,0,0,0-.17.85v1.46a2,2,0,0,0,.16.93.55.55,0,0,0,.51.29.54.54,0,0,0,.5-.28,2.07,2.07,0,0,0,.16-.9v-1.41a2,2,0,0,0-.16-.92A.54.54,0,0,0,343.77,156.13Z" transform="translate(-58.41 -133.06)"/><path class="cls-1" d="M334.44,174.8v-1.4a2,2,0,0,0-.16-.92.58.58,0,0,0-.13-.14v3.5a.89.89,0,0,0,.13-.14A2,2,0,0,0,334.44,174.8Z" transform="translate(-58.41 -133.06)"/><path class="cls-1" d="M343.78,192a.55.55,0,0,0,.5-.29,2,2,0,0,0,.16-.9v-1.4a2,2,0,0,0-.16-.92.54.54,0,0,0-.51-.3.51.51,0,0,0-.49.28,1.84,1.84,0,0,0-.17.85v1.45a2,2,0,0,0,.16.93A.54.54,0,0,0,343.78,192Z" transform="translate(-58.41 -133.06)"/><path class="cls-1" d="M334.44,150.73v-.36h-.29v1.4a.89.89,0,0,0,.13-.14A2,2,0,0,0,334.44,150.73Z" transform="translate(-58.41 -133.06)"/><path class="cls-1" d="M344.72,152.86H343.4v-2.49h-3.68v2.49H338.4v-2.49h-2.64v.16a2.76,2.76,0,0,1-.52,1.78,1.71,1.71,0,0,1-1.09.59v2.45l.45-.16h.12v5.69h-.57v2.49l.45-.15h.12v5.68h-.57v2.3a1.71,1.71,0,0,1,1.09.59,2.76,2.76,0,0,1,.52,1.78v1a2.74,2.74,0,0,1-.52,1.78,1.67,1.67,0,0,1-1.09.59v15.66h8.37a2,2,0,0,1-.21-.2,2.7,2.7,0,0,1-.52-1.78v-1a2.67,2.67,0,0,1,.52-1.77,1.77,1.77,0,0,1,1.46-.63,1.81,1.81,0,0,1,1.47.63,2.76,2.76,0,0,1,.52,1.78v1a2.76,2.76,0,0,1-.52,1.78,1.94,1.94,0,0,1-.21.2h2.32V150.37h-2.63Zm-5,32.09H338.4v-4.2l-1.29.38v-1l2.49-.86h.12Zm1-10.35a2.74,2.74,0,0,1-.52,1.78,1.79,1.79,0,0,1-1.46.63,1.81,1.81,0,0,1-1.47-.63,2.7,2.7,0,0,1-.52-1.78v-1a2.68,2.68,0,0,1,.52-1.78,1.77,1.77,0,0,1,1.46-.63,1.81,1.81,0,0,1,1.47.63,2.76,2.76,0,0,1,.52,1.78Zm-3.65-9.52v-1l2.49-.86h.12v5.68H338.4v-4.2Zm3.65-6.52a2.73,2.73,0,0,1-.52,1.77,1.79,1.79,0,0,1-1.46.63,1.81,1.81,0,0,1-1.47-.63,2.69,2.69,0,0,1-.52-1.77v-1a2.7,2.7,0,0,1,.52-1.78,1.77,1.77,0,0,1,1.46-.63,1.81,1.81,0,0,1,1.47.63,2.77,2.77,0,0,1,.52,1.78Zm4,26.39H343.4v-4.2l-1.29.38v-1l2.49-.86h.12Zm1-10.35a2.74,2.74,0,0,1-.52,1.78,1.79,1.79,0,0,1-1.46.63,1.81,1.81,0,0,1-1.47-.63,2.7,2.7,0,0,1-.52-1.78v-1a2.68,2.68,0,0,1,.52-1.78,1.77,1.77,0,0,1,1.46-.63,1.81,1.81,0,0,1,1.47.63,2.76,2.76,0,0,1,.52,1.78Zm-3.65-9.52v-1l2.49-.86h.12v5.68H343.4v-4.2Zm3.65-6.52a2.73,2.73,0,0,1-.52,1.77,1.79,1.79,0,0,1-1.46.63,1.81,1.81,0,0,1-1.47-.63,2.69,2.69,0,0,1-.52-1.77v-1a2.7,2.7,0,0,1,.52-1.78,1.77,1.77,0,0,1,1.46-.63,1.81,1.81,0,0,1,1.47.63,2.77,2.77,0,0,1,.52,1.78Z" transform="translate(-58.41 -133.06)"/><path class="cls-1" d="M343.77,140.08a.52.52,0,0,0-.49.28,1.86,1.86,0,0,0-.17.86v1.45a2,2,0,0,0,.16.93.59.59,0,0,0,1,0,2,2,0,0,0,.16-.9V141.3a2,2,0,0,0-.16-.91A.54.54,0,0,0,343.77,140.08Z" transform="translate(-58.41 -133.06)"/><path class="cls-1" d="M338.77,140.08a.52.52,0,0,0-.49.28,1.86,1.86,0,0,0-.17.86v1.45a2,2,0,0,0,.16.93.59.59,0,0,0,1,0,2,2,0,0,0,.16-.9V141.3a2,2,0,0,0-.16-.91A.54.54,0,0,0,338.77,140.08Z" transform="translate(-58.41 -133.06)"/><path class="cls-1" d="M345.94,134.86a6.49,6.49,0,0,0-1.22-.85v2.8H343.4v-3.35a9,9,0,0,0-2.73-.4c-.33,0-.63,0-.95.07v3.68H338.4v-3.46a6.78,6.78,0,0,0-2.65,1.26,2.68,2.68,0,0,1-.51,1.65,1.8,1.8,0,0,1-1.35.62,6.21,6.21,0,0,0-.52,2.59v.1l1.23-.43h.12v4.23a6.5,6.5,0,0,0,.68.71,8.65,8.65,0,0,0,10.54,0,6.23,6.23,0,0,0,0-9.22Zm-5.18,7.65a2.76,2.76,0,0,1-.52,1.78,2,2,0,0,1-2.93,0,2.69,2.69,0,0,1-.52-1.77v-1a2.7,2.7,0,0,1,.52-1.78,2,2,0,0,1,2.93,0,2.74,2.74,0,0,1,.52,1.77Zm5,0a2.76,2.76,0,0,1-.52,1.78,2,2,0,0,1-2.93,0,2.69,2.69,0,0,1-.52-1.77v-1a2.7,2.7,0,0,1,.52-1.78,2,2,0,0,1,2.93,0,2.74,2.74,0,0,1,.52,1.77Z" transform="translate(-58.41 -133.06)"/><path class="cls-1" d="M361.77,187.18a.51.51,0,0,0-.49.28,1.84,1.84,0,0,0-.17.85v.13c.43.36.87.71,1.33,1V188.4a2,2,0,0,0-.16-.92A.54.54,0,0,0,361.77,187.18Z" transform="translate(-58.41 -133.06)"/><path class="cls-1" d="M366.78,191a.53.53,0,0,0,.5-.29,2,2,0,0,0,.16-.9v-1.4a2,2,0,0,0-.16-.92.54.54,0,0,0-.51-.3.51.51,0,0,0-.49.28,1.84,1.84,0,0,0-.17.85v1.45a2,2,0,0,0,.16.94A.55.55,0,0,0,366.78,191Z" transform="translate(-58.41 -133.06)"/><path class="cls-1" d="M366.78,158.89a.54.54,0,0,0,.5-.28,2,2,0,0,0,.16-.9V156.3a2,2,0,0,0-.16-.91.54.54,0,0,0-.51-.31.52.52,0,0,0-.49.28,1.86,1.86,0,0,0-.17.86v1.45a2,2,0,0,0,.16.93A.54.54,0,0,0,366.78,158.89Z" transform="translate(-58.41 -133.06)"/><path class="cls-1" d="M361.77,171.13a.51.51,0,0,0-.49.28,1.84,1.84,0,0,0-.17.85v1.46a2,2,0,0,0,.16.93.55.55,0,0,0,.51.29.54.54,0,0,0,.5-.28,2.07,2.07,0,0,0,.16-.9v-1.41a2,2,0,0,0-.16-.92A.54.54,0,0,0,361.77,171.13Z" transform="translate(-58.41 -133.06)"/><path class="cls-1" d="M386.77,179.15a.51.51,0,0,0-.49.29,1.81,1.81,0,0,0-.17.85v1.45a2,2,0,0,0,.16.93.58.58,0,0,0,1,0,2,2,0,0,0,.16-.9v-1.41a2.64,2.64,0,0,0,0-.51l-.59-.7Z" transform="translate(-58.41 -133.06)"/><path class="cls-1" d="M356.4,182.57V179.7l-1.06.31A20,20,0,0,0,356.4,182.57Z" transform="translate(-58.41 -133.06)"/><path class="cls-1" d="M381.78,150.87a.56.56,0,0,0,.23-.06l-.74-.24h0A.55.55,0,0,0,381.78,150.87Z" transform="translate(-58.41 -133.06)"/><path class="cls-1" d="M376.78,150.87a.53.53,0,0,0,.5-.29,2,2,0,0,0,.15-.81q-.65-.08-1.32-.12a2,2,0,0,0,.16.93A.55.55,0,0,0,376.78,150.87Z" transform="translate(-58.41 -133.06)"/><path class="cls-1" d="M371.78,150.87a.53.53,0,0,0,.5-.29,2,2,0,0,0,.16-.9h0c-.45,0-.89.08-1.32.13a2.06,2.06,0,0,0,.15.78A.55.55,0,0,0,371.78,150.87Z" transform="translate(-58.41 -133.06)"/><path class="cls-1" d="M356.78,166.92a.55.55,0,0,0,.5-.29,2,2,0,0,0,.16-.9v-1.4a2,2,0,0,0-.16-.92.54.54,0,0,0-.51-.3.51.51,0,0,0-.49.28,1.84,1.84,0,0,0-.17.85v1.45a2,2,0,0,0,.16.93A.54.54,0,0,0,356.78,166.92Z" transform="translate(-58.41 -133.06)"/><path class="cls-1" d="M393.72,170.52q0-9.89-5.16-15.41c-.27-.28-.55-.54-.84-.8v5.52H386.4v-4.2l-1.29.38v-1l2.46-.85a16.25,16.25,0,0,0-4.37-2.86,2,2,0,0,1-2.89,0,2.21,2.21,0,0,1-.45-1.08c-.38-.08-.74-.18-1.13-.25a2.49,2.49,0,0,1-.49,1.33,1.79,1.79,0,0,1-1.46.63,1.81,1.81,0,0,1-1.47-.63,2.61,2.61,0,0,1-.51-1.66l-.3,0-.75,0a2.69,2.69,0,0,1-.51,1.66,1.79,1.79,0,0,1-1.46.63,1.81,1.81,0,0,1-1.47-.63,2.48,2.48,0,0,1-.49-1.26q-1.08.21-2.1.51v1.3H366.4V151a18,18,0,0,0-2.84,1.34,17.8,17.8,0,0,0-2.7,2,2,2,0,0,1,.91-.2,1.81,1.81,0,0,1,1.47.63,2.74,2.74,0,0,1,.52,1.77v1a2.76,2.76,0,0,1-.52,1.78,2,2,0,0,1-2.93,0,2.69,2.69,0,0,1-.52-1.77v-1a2.87,2.87,0,0,1,.38-1.57,17.91,17.91,0,0,0-2.45,3v1.93h-1.09a1.09,1.09,0,0,0-.08.15,21.11,21.11,0,0,0-1,2.54,1.85,1.85,0,0,1,1.26-.43,1.81,1.81,0,0,1,1.47.63,2.76,2.76,0,0,1,.52,1.78v1a2.76,2.76,0,0,1-.52,1.78,1.78,1.78,0,0,1-1.46.62,1.8,1.8,0,0,1-1.47-.62,2.7,2.7,0,0,1-.52-1.78v-.39a29.25,29.25,0,0,0-.64,6.28v1.09a23.51,23.51,0,0,0,1,6.82v-.25l2.49-.86h.12v5.68h-.54a19.38,19.38,0,0,0,2.79,3.51,2,2,0,0,1,.34-.62,1.77,1.77,0,0,1,1.46-.63,1.81,1.81,0,0,1,1.47.63,2.76,2.76,0,0,1,.52,1.78v1a3.88,3.88,0,0,1-.07.71c.47.28.95.56,1.45.8a2.93,2.93,0,0,1-.35-1.51v-1a2.68,2.68,0,0,1,.52-1.78,1.77,1.77,0,0,1,1.46-.63,1.81,1.81,0,0,1,1.47.63,2.76,2.76,0,0,1,.52,1.78v1a2.74,2.74,0,0,1-.52,1.78,1.67,1.67,0,0,1-1.09.59,25.23,25.23,0,0,0,8.76,1.44,23.57,23.57,0,0,0,9.7-2l.79-.38v-3.29l-1.29.37v-1l2.49-.86h.12v4.08a15.88,15.88,0,0,0,4.87-4.33l-3.83-4.53v.12a2.76,2.76,0,0,1-.52,1.78,2,2,0,0,1-2.93,0,2.69,2.69,0,0,1-.52-1.77v-.92a10.68,10.68,0,0,1-2.07,1.32v1.92H381.4v-1.37a13.91,13.91,0,0,1-4.6.73,9.21,9.21,0,0,1-6.17-2,9.48,9.48,0,0,1-3-5.42,2.09,2.09,0,0,1-.81.15,1.81,1.81,0,0,1-1.47-.63,2.69,2.69,0,0,1-.52-1.77v-1a2.7,2.7,0,0,1,.52-1.78,1.77,1.77,0,0,1,1.46-.63,1.81,1.81,0,0,1,1.47.63,2.77,2.77,0,0,1,.52,1.78v1a2.73,2.73,0,0,1-.52,1.77,2,2,0,0,1-.34.31h3.5v-4l-1.29.38v-1l2.49-.87h.12v5.45h3.68v-4l-1.29.38v-1l2.49-.87h.12v5.45h3.68v-4l-1.29.38v-1l2.49-.87h.12v5.45h3.68v-4l-1.29.38v-1l2.49-.87h.12v5.45h6Zm-36,5.36H356.4v-4.2l-1.29.38v-1l2.49-.87h.12ZM360.11,163l2.49-.86h.12v5.69H361.4v-4.21l-1.29.38Zm2.61,20.87H361.4v-4.2l-1.29.38v-1l2.49-.86h.12Zm1-10.34a2.73,2.73,0,0,1-.52,1.77,1.79,1.79,0,0,1-1.46.63,1.81,1.81,0,0,1-1.47-.63,2.69,2.69,0,0,1-.52-1.77v-1a2.7,2.7,0,0,1,.52-1.78,1.77,1.77,0,0,1,1.46-.63,1.81,1.81,0,0,1,1.47.63,2.77,2.77,0,0,1,.52,1.78Zm16.35,13.54,2.49-.86h.12v5.69H381.4v-4.2l-1.29.37Zm-15-8,2.49-.86h.12v5.68H366.4v-4.2l-1.29.38Zm15-24.07,2.49-.87h.12v5.69H381.4v-4.2l-1.29.38Zm-5,0,2.49-.87h.12v5.69H376.4v-4.2l-1.29.38Zm-5,0,2.49-.87h.12v5.69H371.4v-4.2l-1.29.38Zm-5.32,1.46a2.7,2.7,0,0,1,.52-1.78,2,2,0,0,1,2.93,0,2.74,2.74,0,0,1,.52,1.77v1a2.76,2.76,0,0,1-.52,1.78,2,2,0,0,1-2.93,0,2.69,2.69,0,0,1-.52-1.77Zm19,9.06a2.76,2.76,0,0,1-.52,1.78,1.78,1.78,0,0,1-1.46.62,1.8,1.8,0,0,1-1.37-.53h-2.26a2,2,0,0,1-2.74,0h-2.26a2,2,0,0,1-2.74,0h-2.69v.46H366.4v-4.21l-1.29.38v-1l2.49-.86h.12v4.19q1.33-6.62,6.7-6.62a6.39,6.39,0,0,1,4.81,1.74,5.43,5.43,0,0,1,.94,1.44c.05-.07.09-.14.14-.2a1.77,1.77,0,0,1,1.46-.63,1.81,1.81,0,0,1,1.47.63,2.76,2.76,0,0,1,.52,1.78Zm5,0a2.76,2.76,0,0,1-.52,1.78,1.78,1.78,0,0,1-1.46.62,1.8,1.8,0,0,1-1.47-.62,2.7,2.7,0,0,1-.52-1.78v-1a2.67,2.67,0,0,1,.52-1.77,1.77,1.77,0,0,1,1.46-.63,1.81,1.81,0,0,1,1.47.63,2.76,2.76,0,0,1,.52,1.78Z" transform="translate(-58.41 -133.06)"/><path class="cls-1" d="M366.77,171.13a.51.51,0,0,0-.49.28,1.84,1.84,0,0,0-.17.85v1.46a2,2,0,0,0,.16.93.55.55,0,0,0,.51.29.54.54,0,0,0,.5-.28,2.07,2.07,0,0,0,.16-.9v-1.41a2,2,0,0,0-.16-.92A.54.54,0,0,0,366.77,171.13Z" transform="translate(-58.41 -133.06)"/><path class="cls-1" d="M381.77,163.11a.51.51,0,0,0-.49.28,1.84,1.84,0,0,0-.17.85v1.45a2,2,0,0,0,.16.93.58.58,0,0,0,1,0,2,2,0,0,0,.16-.9v-1.4a2,2,0,0,0-.16-.92A.54.54,0,0,0,381.77,163.11Z" transform="translate(-58.41 -133.06)"/><path class="cls-1" d="M386.77,163.11a.51.51,0,0,0-.49.28,1.84,1.84,0,0,0-.17.85v1.45a2,2,0,0,0,.16.93.58.58,0,0,0,1,0,2,2,0,0,0,.16-.9v-1.4a2,2,0,0,0-.16-.92A.54.54,0,0,0,386.77,163.11Z" transform="translate(-58.41 -133.06)"/><path class="cls-1" d="M361.78,158.89a.54.54,0,0,0,.5-.28,2,2,0,0,0,.16-.9V156.3a2,2,0,0,0-.16-.91.54.54,0,0,0-.51-.31.52.52,0,0,0-.49.28,1.86,1.86,0,0,0-.17.86v1.45a2,2,0,0,0,.16.93A.54.54,0,0,0,361.78,158.89Z" transform="translate(-58.41 -133.06)"/><path class="cls-1" d="M405.77,182.06a.51.51,0,0,0-.49.28,1.84,1.84,0,0,0-.17.85v1.45a2,2,0,0,0,.16.94.55.55,0,0,0,.51.29.53.53,0,0,0,.5-.29,2,2,0,0,0,.16-.9v-1.4a2,2,0,0,0-.16-.92A.54.54,0,0,0,405.77,182.06Z" transform="translate(-58.41 -133.06)"/><path class="cls-1" d="M410.77,190.08a.52.52,0,0,0-.49.28,1.86,1.86,0,0,0-.17.86v1.41h1.33V191.3a2,2,0,0,0-.16-.91A.54.54,0,0,0,410.77,190.08Z" transform="translate(-58.41 -133.06)"/><path class="cls-1" d="M430.78,185.87a.51.51,0,0,0,.49-.29,1.86,1.86,0,0,0,.17-.9v-1.4a2,2,0,0,0-.16-.92.54.54,0,0,0-.51-.3.51.51,0,0,0-.49.28,1.84,1.84,0,0,0-.17.85v1.45a2,2,0,0,0,.16.94A.55.55,0,0,0,430.78,185.87Z" transform="translate(-58.41 -133.06)"/><path class="cls-1" d="M435.77,182.06a.51.51,0,0,0-.49.28,1.84,1.84,0,0,0-.17.85v1.45a2,2,0,0,0,.16.94.55.55,0,0,0,.51.29.51.51,0,0,0,.49-.29,1.86,1.86,0,0,0,.17-.9v-1.4a2,2,0,0,0-.16-.92A.54.54,0,0,0,435.77,182.06Z" transform="translate(-58.41 -133.06)"/><path class="cls-1" d="M425.78,185.87a.51.51,0,0,0,.49-.29,1.86,1.86,0,0,0,.17-.9v-1.4a2,2,0,0,0-.16-.92.54.54,0,0,0-.51-.3.51.51,0,0,0-.49.28,1.84,1.84,0,0,0-.17.85v1.45a2,2,0,0,0,.16.94A.55.55,0,0,0,425.78,185.87Z" transform="translate(-58.41 -133.06)"/><path class="cls-1" d="M425.4,192.63v-2l-1.29.38v-1l2.49-.87h.12v3.49h3.68v-2l-1.29.38v-1l2.49-.87h.12v3.49h3.68v-2l-1.29.38v-1l2.49-.87h.12v3.49h.12v-6a2,2,0,0,1-1.06.29,1.81,1.81,0,0,1-1.47-.63,2.7,2.7,0,0,1-.52-1.78v-1a2.68,2.68,0,0,1,.52-1.78,1.77,1.77,0,0,1,1.46-.63,2,2,0,0,1,1.07.29V165.4q-.12-7.92-3.38-11.87t-9.86-3.95a14.34,14.34,0,0,0-12.07,5.75l-.43-5H398.76v42.26h6.64v-2l-1.29.38v-1l2.49-.87h.12v3.49h2.08s0-.08,0-.12v-1a2.7,2.7,0,0,1,.52-1.78,1.8,1.8,0,0,1,1.46-.62,1.93,1.93,0,0,1,1.15.33V162.79a6.29,6.29,0,0,1,5.74-3q3.4,0,4.69,1.5a7.16,7.16,0,0,1,1.29,4.71v26.68Zm-17.64-8.15a2.74,2.74,0,0,1-.52,1.78,1.79,1.79,0,0,1-1.46.63,1.81,1.81,0,0,1-1.47-.63,2.7,2.7,0,0,1-.52-1.78v-1a2.68,2.68,0,0,1,.52-1.78,1.77,1.77,0,0,1,1.46-.63,1.81,1.81,0,0,1,1.47.63,2.76,2.76,0,0,1,.52,1.78Zm4,2.33H410.4v-4.2l-1.29.37v-1l2.49-.86h.12Zm17.07-3.36a2.68,2.68,0,0,1,.52-1.78,1.77,1.77,0,0,1,1.46-.63,1.81,1.81,0,0,1,1.47.63,2.76,2.76,0,0,1,.52,1.78v1a2.74,2.74,0,0,1-.52,1.78,1.79,1.79,0,0,1-1.46.63,1.81,1.81,0,0,1-1.47-.63,2.7,2.7,0,0,1-.52-1.78Zm-5,0a2.68,2.68,0,0,1,.52-1.78,1.77,1.77,0,0,1,1.46-.63,1.81,1.81,0,0,1,1.47.63,2.76,2.76,0,0,1,.52,1.78v1a2.74,2.74,0,0,1-.52,1.78,1.79,1.79,0,0,1-1.46.63,1.81,1.81,0,0,1-1.47-.63,2.7,2.7,0,0,1-.52-1.78Z" transform="translate(-58.41 -133.06)"/><path class="cls-1" d="M452.78,139.94a.56.56,0,0,0,.3-.08h-.61A.59.59,0,0,0,452.78,139.94Z" transform="translate(-58.41 -133.06)"/><path class="cls-1" d="M447.77,152.18a.51.51,0,0,0-.49.28,1.84,1.84,0,0,0-.17.85v1.45a2,2,0,0,0,.16.94.55.55,0,0,0,.51.29.51.51,0,0,0,.49-.29,1.86,1.86,0,0,0,.17-.9v-1.4a2,2,0,0,0-.16-.92A.54.54,0,0,0,447.77,152.18Z" transform="translate(-58.41 -133.06)"/><path class="cls-1" d="M457.77,168.23a.51.51,0,0,0-.49.28,1.84,1.84,0,0,0-.17.85v1.45a2,2,0,0,0,.16.93.54.54,0,0,0,.51.3.52.52,0,0,0,.49-.29,1.86,1.86,0,0,0,.17-.9v-1.4a2,2,0,0,0-.16-.92A.54.54,0,0,0,457.77,168.23Z" transform="translate(-58.41 -133.06)"/><path class="cls-1" d="M457.78,139.94a.56.56,0,0,0,.3-.08h-.61A.59.59,0,0,0,457.78,139.94Z" transform="translate(-58.41 -133.06)"/><path class="cls-1" d="M457.78,156a.51.51,0,0,0,.49-.29,1.86,1.86,0,0,0,.17-.9v-1.4a2,2,0,0,0-.16-.92.54.54,0,0,0-.51-.3.51.51,0,0,0-.49.28,1.84,1.84,0,0,0-.17.85v1.45a2,2,0,0,0,.16.94A.55.55,0,0,0,457.78,156Z" transform="translate(-58.41 -133.06)"/><path class="cls-1" d="M460.32,182.16a4.94,4.94,0,0,1-.86-3.32v-6.75a2,2,0,0,1-.22.34,1.78,1.78,0,0,1-1.46.62,1.8,1.8,0,0,1-1.47-.62,2.7,2.7,0,0,1-.52-1.78v-1a2.67,2.67,0,0,1,.52-1.77,1.77,1.77,0,0,1,1.46-.63,1.81,1.81,0,0,1,1.47.63,2,2,0,0,1,.22.34v-8.67h7v-9.14h-7V140a1.66,1.66,0,0,1-.22.34,1.79,1.79,0,0,1-1.46.63,1.81,1.81,0,0,1-1.47-.63,2.43,2.43,0,0,1-.28-.47h-1.51a2.16,2.16,0,0,1-.28.47,1.79,1.79,0,0,1-1.46.63,1.81,1.81,0,0,1-1.47-.63,2.43,2.43,0,0,1-.28-.47h-2.31v1H447.4v-1h-1.1V144l2.3-.79h.12v5.68H447.4v-4.2l-1.1.33v5.34h-5.39v9.14h5.39v21q0,6.53,3.24,9.73t10,3.2a24.43,24.43,0,0,0,7.42-1.13v-9.41a20.08,20.08,0,0,1-3.28.23C462,183.1,460.89,182.79,460.32,182.16ZM458.72,165H457.4v-4.2l-1.29.38v-1l2.49-.86h.12Zm-2.61-20.87,2.49-.86h.12v5.68H457.4v-4.2l-1.29.38Zm-.32,9.49a2.68,2.68,0,0,1,.52-1.78,1.77,1.77,0,0,1,1.46-.63,1.81,1.81,0,0,1,1.47.63,2.76,2.76,0,0,1,.52,1.78v1a2.74,2.74,0,0,1-.52,1.78,1.79,1.79,0,0,1-1.46.63,1.81,1.81,0,0,1-1.47-.63,2.7,2.7,0,0,1-.52-1.78Zm-4.68-9.49,2.49-.86h.12v5.68H452.4v-4.2l-1.29.38Zm-1.35,10.52a2.74,2.74,0,0,1-.52,1.78,1.79,1.79,0,0,1-1.46.63,1.81,1.81,0,0,1-1.47-.63,2.7,2.7,0,0,1-.52-1.78v-1a2.68,2.68,0,0,1,.52-1.78,1.77,1.77,0,0,1,1.46-.63,1.81,1.81,0,0,1,1.47.63,2.76,2.76,0,0,1,.52,1.78Zm4,10.35H452.4v-4.2l-1.29.38v-1l2.49-.86h.12Zm1-10.35a2.74,2.74,0,0,1-.52,1.78,1.79,1.79,0,0,1-1.46.63,1.81,1.81,0,0,1-1.47-.63,2.7,2.7,0,0,1-.52-1.78v-1a2.68,2.68,0,0,1,.52-1.78,1.77,1.77,0,0,1,1.46-.63,1.81,1.81,0,0,1,1.47.63,2.76,2.76,0,0,1,.52,1.78Z" transform="translate(-58.41 -133.06)"/><path class="cls-1" d="M452.77,152.18a.51.51,0,0,0-.49.28,1.84,1.84,0,0,0-.17.85v1.45a2,2,0,0,0,.16.94.55.55,0,0,0,.51.29.51.51,0,0,0,.49-.29,1.86,1.86,0,0,0,.17-.9v-1.4a2,2,0,0,0-.16-.92A.54.54,0,0,0,452.77,152.18Z" transform="translate(-58.41 -133.06)"/><rect class="cls-1" x="413.87" y="17.3" width="13.2" height="42.27"/><path class="cls-1" d="M484.07,134.86a7,7,0,0,0-3.35-1.59V138H479.4v-4.2l-1.29.38v-1l.06,0a8.6,8.6,0,0,0-2.45.46V138H474.4v-3.73a9,9,0,0,0-.88.64,6.25,6.25,0,0,0,0,9.22,7.71,7.71,0,0,0,5.28,1.79h.08a1.75,1.75,0,0,1-.57-.44,2.7,2.7,0,0,1-.52-1.78v-1a2.67,2.67,0,0,1,.52-1.77,1.77,1.77,0,0,1,1.46-.63,1.81,1.81,0,0,1,1.47.63,2.76,2.76,0,0,1,.52,1.78v1a2.76,2.76,0,0,1-.52,1.78c-.05.06-.11.1-.16.15a6.94,6.94,0,0,0,3-1.5,6.25,6.25,0,0,0,0-9.22Z" transform="translate(-58.41 -133.06)"/><path class="cls-1" d="M479.78,145a.52.52,0,0,0,.49-.29,1.86,1.86,0,0,0,.17-.9v-1.4a2,2,0,0,0-.16-.92.54.54,0,0,0-.51-.3.51.51,0,0,0-.49.28,1.84,1.84,0,0,0-.17.85v1.45a2,2,0,0,0,.16.93A.54.54,0,0,0,479.78,145Z" transform="translate(-58.41 -133.06)"/><path class="cls-1" d="M523.77,172.18a.51.51,0,0,0-.49.28,1.84,1.84,0,0,0-.17.85v1.45a2,2,0,0,0,.16.94.55.55,0,0,0,.51.29.51.51,0,0,0,.49-.29,1.86,1.86,0,0,0,.17-.9v-1.4a2,2,0,0,0-.16-.92A.54.54,0,0,0,523.77,172.18Z" transform="translate(-58.41 -133.06)"/><path class="cls-1" d="M518.78,176a.51.51,0,0,0,.49-.29,1.86,1.86,0,0,0,.17-.9v-1.4a2,2,0,0,0-.16-.92.54.54,0,0,0-.51-.3.51.51,0,0,0-.49.28,1.84,1.84,0,0,0-.17.85v1.45a2,2,0,0,0,.16.94A.55.55,0,0,0,518.78,176Z" transform="translate(-58.41 -133.06)"/><path class="cls-1" d="M523.77,188.23a.51.51,0,0,0-.49.28,1.84,1.84,0,0,0-.17.85v.52l.16-.1c.4-.28.77-.58,1.13-.88a1.46,1.46,0,0,0-.12-.37A.54.54,0,0,0,523.77,188.23Z" transform="translate(-58.41 -133.06)"/><path class="cls-1" d="M513.78,176a.51.51,0,0,0,.49-.29,1.86,1.86,0,0,0,.17-.9v-1.4a2,2,0,0,0-.16-.92.54.54,0,0,0-.51-.3.51.51,0,0,0-.49.28,1.84,1.84,0,0,0-.17.85v1.45a2,2,0,0,0,.16.94A.55.55,0,0,0,513.78,176Z" transform="translate(-58.41 -133.06)"/><path class="cls-1" d="M513.78,151.92a.52.52,0,0,0,.49-.29,1.86,1.86,0,0,0,.17-.9v-.83l-1.33-.16v.95a2,2,0,0,0,.16.93A.54.54,0,0,0,513.78,151.92Z" transform="translate(-58.41 -133.06)"/><path class="cls-1" d="M523.77,156.13a.51.51,0,0,0-.49.28,1.84,1.84,0,0,0-.17.85v1.46a2,2,0,0,0,.16.93.55.55,0,0,0,.51.29.51.51,0,0,0,.49-.28,1.91,1.91,0,0,0,.17-.9v-1.41a2,2,0,0,0-.16-.92A.54.54,0,0,0,523.77,156.13Z" transform="translate(-58.41 -133.06)"/><path class="cls-1" d="M523.41,153.37a17.14,17.14,0,0,0-3.69-2.05v1.54H518.4v-2a21.26,21.26,0,0,0-2.64-.72v.42a2.76,2.76,0,0,1-.52,1.78,1.78,1.78,0,0,1-1.46.62,1.8,1.8,0,0,1-1.47-.62,2.7,2.7,0,0,1-.52-1.78v-.89c-.6,0-1.2-.06-1.82-.06q-7.77,0-12.58,3.77a11.7,11.7,0,0,0-4.8,9.59,10.29,10.29,0,0,0,1.67,5.82,13.49,13.49,0,0,0,4.89,4.32,30.22,30.22,0,0,0,8.12,2.87,26.64,26.64,0,0,1,6.68,2.11,3.06,3.06,0,0,1,1.76,2.7,3.5,3.5,0,0,1-1.35,2.85,6.3,6.3,0,0,1-4,1.09,8,8,0,0,1-4.81-1.35,5.06,5.06,0,0,1-1.95-4.27h-12.3a12,12,0,0,0,2.38,7.07,16.17,16.17,0,0,0,6.64,5.31,23,23,0,0,0,9.69,1.95,23.75,23.75,0,0,0,11.82-2.7v-1.1a2.67,2.67,0,0,1,.52-1.77,1.77,1.77,0,0,1,1.46-.63,1.81,1.81,0,0,1,1.47.63s.06.11.1.16a10.62,10.62,0,0,0,3.07-7.63,11,11,0,0,0-2.73-7.57,4.44,4.44,0,0,1,.08.77v1a2.74,2.74,0,0,1-.52,1.78,1.79,1.79,0,0,1-1.46.63,1.81,1.81,0,0,1-1.47-.63,2.7,2.7,0,0,1-.52-1.78v-1a2.68,2.68,0,0,1,.52-1.78,1.77,1.77,0,0,1,1.46-.63l.14,0a17.68,17.68,0,0,0-4.24-2.28H518.4v-.44c-1.12-.37-2.35-.71-3.68-1v1.45H513.4v-1.74l-1.15-.23a16.31,16.31,0,0,1-5.49-1.8,3.28,3.28,0,0,1-1.71-2.85,3.55,3.55,0,0,1,1.4-2.87,5.31,5.31,0,0,1,3.48-1.15,6.19,6.19,0,0,1,3.47.87v-2.45l-1.29.38v-1l2.49-.87h.12v5.46a6,6,0,0,1,.56,2.68h4l.34-.11h.12v.11h4.54l.34-.11h.12v.11h3.76A11.86,11.86,0,0,0,523.41,153.37Zm-1.3,26.76,2.49-.86h.12V185H523.4v-4.2l-1.29.38ZM519.72,185H518.4v-4.2l-1.29.38v-1l2.49-.86h.12Zm-2.93-11.38a2.68,2.68,0,0,1,.52-1.78,1.77,1.77,0,0,1,1.46-.63,1.81,1.81,0,0,1,1.47.63,2.76,2.76,0,0,1,.52,1.78v1a2.74,2.74,0,0,1-.52,1.78,1.79,1.79,0,0,1-1.46.63,1.81,1.81,0,0,1-1.47-.63,2.7,2.7,0,0,1-.52-1.78Zm-5,0a2.68,2.68,0,0,1,.52-1.78,1.77,1.77,0,0,1,1.46-.63,1.81,1.81,0,0,1,1.47.63,2.76,2.76,0,0,1,.52,1.78v1a2.74,2.74,0,0,1-.52,1.78,1.79,1.79,0,0,1-1.46.63,1.81,1.81,0,0,1-1.47-.63,2.7,2.7,0,0,1-.52-1.78Zm9-15a2.73,2.73,0,0,1-.52,1.77,1.79,1.79,0,0,1-1.46.63,1.81,1.81,0,0,1-1.47-.63,2.69,2.69,0,0,1-.52-1.77v-1a2.7,2.7,0,0,1,.52-1.78,1.77,1.77,0,0,1,1.46-.63,1.81,1.81,0,0,1,1.47.63,2.77,2.77,0,0,1,.52,1.78Zm4.48,1.77a1.79,1.79,0,0,1-1.46.63,1.81,1.81,0,0,1-1.47-.63,2.69,2.69,0,0,1-.52-1.77v-1a2.7,2.7,0,0,1,.52-1.78,1.77,1.77,0,0,1,1.46-.63,1.81,1.81,0,0,1,1.47.63,2.77,2.77,0,0,1,.52,1.78v1A2.73,2.73,0,0,1,525.24,160.33Z" transform="translate(-58.41 -133.06)"/><path class="cls-1" d="M518.77,156.13a.51.51,0,0,0-.49.28,1.84,1.84,0,0,0-.17.85v1.46a2,2,0,0,0,.16.93.55.55,0,0,0,.51.29.51.51,0,0,0,.49-.28,1.91,1.91,0,0,0,.17-.9v-1.41a2,2,0,0,0-.16-.92A.54.54,0,0,0,518.77,156.13Z" transform="translate(-58.41 -133.06)"/><path class="cls-1" d="M548.77,140.18a.51.51,0,0,0-.49.28,1.84,1.84,0,0,0-.17.85v1.45a2,2,0,0,0,.16.94.55.55,0,0,0,.51.29.51.51,0,0,0,.49-.29,1.86,1.86,0,0,0,.17-.9v-1.4a2,2,0,0,0-.16-.92A.54.54,0,0,0,548.77,140.18Z" transform="translate(-58.41 -133.06)"/><path class="cls-1" d="M543.77,140.18a.51.51,0,0,0-.49.28,1.84,1.84,0,0,0-.17.85v1.45a2,2,0,0,0,.16.94.55.55,0,0,0,.51.29.51.51,0,0,0,.49-.29,1.86,1.86,0,0,0,.17-.9v-1.4a2,2,0,0,0-.16-.92A.54.54,0,0,0,543.77,140.18Z" transform="translate(-58.41 -133.06)"/><path class="cls-1" d="M554.44,158.85v-1.4a2,2,0,0,0-.16-.92.54.54,0,0,0-.51-.3.51.51,0,0,0-.49.28,1.84,1.84,0,0,0-.17.85v1.45a2.65,2.65,0,0,0,.09.7h1.16A2.9,2.9,0,0,0,554.44,158.85Z" transform="translate(-58.41 -133.06)"/><path class="cls-1" d="M550.75,182.16a4.94,4.94,0,0,1-.86-3.32V159.51h2a3.76,3.76,0,0,1-.1-.86v-1a2.67,2.67,0,0,1,.52-1.77,1.77,1.77,0,0,1,1.46-.63,1.81,1.81,0,0,1,1.47.63,2.76,2.76,0,0,1,.52,1.78v1a3.76,3.76,0,0,1-.1.86h1.18v-9.14h-2.12V153H553.4v-2.58h-3.51v-5.68a1.89,1.89,0,0,1-1.11.32,1.81,1.81,0,0,1-1.47-.63,2.7,2.7,0,0,1-.52-1.78v-1a2.78,2.78,0,0,1,.47-1.71h-2a2.78,2.78,0,0,1,.48,1.71v1a2.74,2.74,0,0,1-.52,1.78,1.79,1.79,0,0,1-1.46.63,1.81,1.81,0,0,1-1.47-.63,2.7,2.7,0,0,1-.52-1.78v-1a2.78,2.78,0,0,1,.47-1.71h-5.53v10.51h-5.39v9.14h5.39v21q0,6.53,3.24,9.73t10,3.2a24.43,24.43,0,0,0,7.42-1.13v-9.41a20.08,20.08,0,0,1-3.28.23C552.45,183.1,551.32,182.79,550.75,182.16Zm-1-29.21H548.4v-4.2l-1.29.38v-1l2.49-.86h.12Z" transform="translate(-58.41 -133.06)"/><path class="cls-1" d="M568.77,156.13a.51.51,0,0,0-.49.28,1.84,1.84,0,0,0-.17.85v1.46a2,2,0,0,0,.16.93.55.55,0,0,0,.51.29.51.51,0,0,0,.49-.28,1.91,1.91,0,0,0,.17-.9v-1.41a2,2,0,0,0-.16-.92A.54.54,0,0,0,568.77,156.13Z" transform="translate(-58.41 -133.06)"/><path class="cls-1" d="M587.31,168.61a47.8,47.8,0,0,0-6.62-1.68,16.31,16.31,0,0,1-5.49-1.8c-.18-.11-.32-.25-.48-.37v4.14H573.4v-4.2l-1.29.38v-1l1.65-.57a3,3,0,0,1-.28-1.23,3.38,3.38,0,0,1,.27-1.32,1.81,1.81,0,0,1-1.44-.63,2.69,2.69,0,0,1-.52-1.77v-1a2.7,2.7,0,0,1,.52-1.78,1.77,1.77,0,0,1,1.46-.63,1.81,1.81,0,0,1,1.47.63,2.77,2.77,0,0,1,.52,1.78v1c0,.1,0,.2,0,.3a5.55,5.55,0,0,1,2.63-.6c3.56,0,5.35,1.69,5.35,5.07h13.2a11.85,11.85,0,0,0-5.08-10q-5.07-3.78-13.43-3.79a27.24,27.24,0,0,0-3.69.24v3H573.4V150a20.72,20.72,0,0,0-3.68,1.07v1.75H568.4v-1.15a15.81,15.81,0,0,0-2.57,1.64,14.12,14.12,0,0,0-2.24,2.19l1-.35h.12v5.69H563.4v-4.2l-.75.22a11.55,11.55,0,0,0-1.63,6,10.29,10.29,0,0,0,1.68,5.82,13.19,13.19,0,0,0,4.2,3.89,2.09,2.09,0,0,1,.41-.86,1.77,1.77,0,0,1,1.46-.63,1.81,1.81,0,0,1,1.47.63,2.76,2.76,0,0,1,.52,1.78v.93c.34.13.69.25,1,.37a2.28,2.28,0,0,1,0-.27v-1a2.68,2.68,0,0,1,.52-1.78,1.77,1.77,0,0,1,1.46-.63,1.81,1.81,0,0,1,1.47.63,2.76,2.76,0,0,1,.52,1.78v1a3.28,3.28,0,0,1-.24,1.3l.19,0a26.64,26.64,0,0,1,6.68,2.11,3.06,3.06,0,0,1,1.76,2.7,3.5,3.5,0,0,1-1.35,2.85,6.32,6.32,0,0,1-4,1.09,8.67,8.67,0,0,1-4-.89V185H573.4v-2.11a4.6,4.6,0,0,1-1-1.78l-.24.07v-1h0a7,7,0,0,1-.12-1H559.69a12,12,0,0,0,2.39,7.07,16.17,16.17,0,0,0,6.64,5.31,20.25,20.25,0,0,0,4.07,1.35,1.75,1.75,0,0,1-.48-.38,2.7,2.7,0,0,1-.52-1.78v-1a2.67,2.67,0,0,1,.52-1.77,1.77,1.77,0,0,1,1.46-.63,1.81,1.81,0,0,1,1.47.63,2.76,2.76,0,0,1,.52,1.78v1a2.76,2.76,0,0,1-.52,1.78,1.73,1.73,0,0,1-1.3.61,26.69,26.69,0,0,0,4.47.37q8.16,0,13.3-3.63a11.07,11.07,0,0,0,5.13-9.41Q596.84,171.9,587.31,168.61Zm-22.59.29H563.4v-4.2l-1.29.38v-1l2.49-.86h.12Zm5,0H568.4v-4.2l-1.29.38v-1l2.49-.86h.12Zm1-10.34a2.73,2.73,0,0,1-.52,1.77,1.79,1.79,0,0,1-1.46.63,1.81,1.81,0,0,1-1.47-.63,2.69,2.69,0,0,1-.52-1.77v-1a2.7,2.7,0,0,1,.52-1.78,1.77,1.77,0,0,1,1.46-.63,1.81,1.81,0,0,1,1.47.63,2.77,2.77,0,0,1,.52,1.78Zm-1,26.39H568.4v-4.2l-1.29.38v-1l2.49-.86h.12Z" transform="translate(-58.41 -133.06)"/><path class="cls-1" d="M573.78,192a.52.52,0,0,0,.49-.29,1.86,1.86,0,0,0,.17-.9v-1.4a2,2,0,0,0-.16-.92.54.54,0,0,0-.51-.3.51.51,0,0,0-.49.28,1.84,1.84,0,0,0-.17.85v1.45a2,2,0,0,0,.16.93A.54.54,0,0,0,573.78,192Z" transform="translate(-58.41 -133.06)"/><path class="cls-1" d="M574.44,174.8v-1.4a2,2,0,0,0-.16-.92.54.54,0,0,0-.51-.3.51.51,0,0,0-.49.28,1.84,1.84,0,0,0-.17.85v1.45a2.83,2.83,0,0,0,0,.54l1.16.3A2,2,0,0,0,574.44,174.8Z" transform="translate(-58.41 -133.06)"/><path class="cls-1" d="M568.77,172.18a.51.51,0,0,0-.49.28,1.84,1.84,0,0,0-.17.85v0c.43.22.86.44,1.33.64v-.58a2,2,0,0,0-.16-.92A.54.54,0,0,0,568.77,172.18Z" transform="translate(-58.41 -133.06)"/><path class="cls-1" d="M573.77,156.13a.51.51,0,0,0-.49.28,1.84,1.84,0,0,0-.17.85v1.46a2,2,0,0,0,.16.93.55.55,0,0,0,.51.29.51.51,0,0,0,.49-.28,1.91,1.91,0,0,0,.17-.9v-1.41a2,2,0,0,0-.16-.92A.54.54,0,0,0,573.77,156.13Z" transform="translate(-58.41 -133.06)"/></svg>