<svg id="Layer_1" data-name="Layer 1" xmlns="http://www.w3.org/2000/svg" viewBox="0 0 605.82 60.35" fill="white"><title>datascientist-logo-with-numbers-v2</title><path d="M133.33,192.63a14.61,14.61,0,0,1-1.25-3.79q-3.63,4.57-10.16,4.57a15,15,0,0,1-10.16-3.61,11.52,11.52,0,0,1-4.17-9.08q0-6.89,5.07-10.39t14.77-3.52h4.06v-2.24c0-3.9-1.68-5.84-5-5.84-3.12,0-4.69,1.54-4.69,4.63H108.6a11.79,11.79,0,0,1,5.22-10q5.21-3.82,13.3-3.83t12.77,3.95a13.71,13.71,0,0,1,4.8,10.82v18.71c.06,3.88.65,6.85,1.8,8.91v.66ZM125.09,184a7.28,7.28,0,0,0,4.08-1.06,6.55,6.55,0,0,0,2.32-2.38v-6.76h-3.83q-6.87,0-6.87,6.17a3.75,3.75,0,0,0,1.21,2.91A4.37,4.37,0,0,0,125.09,184Z" transform="translate(-58.41 -133.06)"/><path d="M167.31,139.86v10.51h6.95v9.14h-6.95v19.33a4.94,4.94,0,0,0,.86,3.32c.57.63,1.71.94,3.4.94a20,20,0,0,0,3.28-.23v9.41a24.43,24.43,0,0,1-7.42,1.13q-6.8,0-10-3.2t-3.24-9.73v-21h-5.39v-9.14h5.39V139.86Z" transform="translate(-58.41 -133.06)"/><path d="M289.85,183.26a5.84,5.84,0,0,0,4.3-1.51,5.51,5.51,0,0,0,1.48-4.2H308A14.62,14.62,0,0,1,303,189q-5,4.46-12.84,4.45-9.21,0-14.53-5.78t-5.31-16v-.55a25.84,25.84,0,0,1,2.36-11.31,17.24,17.24,0,0,1,6.82-7.54,20.3,20.3,0,0,1,10.55-2.64q8.24,0,13.08,4.57T308,166.54H295.63a7.21,7.21,0,0,0-1.6-5,5.54,5.54,0,0,0-4.3-1.76q-5.12,0-6,6.52a44.48,44.48,0,0,0-.28,5.71q0,6.36,1.53,8.83A5.27,5.27,0,0,0,289.85,183.26Z" transform="translate(-58.41 -133.06)"/><path d="M356,193.41q-9.72,0-15.74-5.8t-6-15.1v-1.09a25.94,25.94,0,0,1,2.4-11.44,17.58,17.58,0,0,1,7-7.68,21.17,21.17,0,0,1,10.94-2.72q8.9,0,14.06,5.53t5.16,15.41v5.12H347.62a9.52,9.52,0,0,0,3.09,5.59,9.21,9.21,0,0,0,6.17,2,11.84,11.84,0,0,0,9.77-4.38l6,7.11a16.74,16.74,0,0,1-7,5.41A23.58,23.58,0,0,1,356,193.41Zm-1.48-33.67q-5.79,0-6.88,7.66h13.29v-1a6.53,6.53,0,0,0-1.61-4.9A6.36,6.36,0,0,0,354.5,159.74Z" transform="translate(-58.41 -133.06)"/><path d="M439.54,139.86v10.51h6.95v9.14h-6.95v19.33a4.89,4.89,0,0,0,.86,3.32c.57.63,1.7.94,3.4.94a20.08,20.08,0,0,0,3.28-.23v9.41a24.48,24.48,0,0,1-7.42,1.13q-6.81,0-10-3.2t-3.25-9.73v-21H421v-9.14h5.39V139.86Z" transform="translate(-58.41 -133.06)"/><path d="M451.57,139.47a5.89,5.89,0,0,1,2-4.61,8.63,8.63,0,0,1,10.55,0,6.25,6.25,0,0,1,0,9.22,8.67,8.67,0,0,1-10.55,0A5.9,5.9,0,0,1,451.57,139.47Zm14,53.16h-13.2V150.37h13.2Z" transform="translate(-58.41 -133.06)"/><path d="M530,139.86v10.51h6.95v9.14H530v19.33a4.89,4.89,0,0,0,.86,3.32c.57.63,1.7.94,3.4.94a20.08,20.08,0,0,0,3.28-.23v9.41a24.48,24.48,0,0,1-7.42,1.13q-6.81,0-10-3.2t-3.25-9.73v-21h-5.39v-9.14h5.39V139.86Z" transform="translate(-58.41 -133.06)"/><path d="M564.23,180.76a3.06,3.06,0,0,0-1.76-2.7,26.64,26.64,0,0,0-6.68-2.11,30.43,30.43,0,0,1-8.13-2.87,13.54,13.54,0,0,1-4.88-4.32,10.29,10.29,0,0,1-1.68-5.82,11.68,11.68,0,0,1,4.81-9.59q4.8-3.76,12.57-3.77,8.37,0,13.44,3.79a11.85,11.85,0,0,1,5.08,10H563.8q0-5.07-5.36-5.07a5.28,5.28,0,0,0-3.47,1.15,3.56,3.56,0,0,0-1.41,2.87,3.27,3.27,0,0,0,1.72,2.85,16.31,16.31,0,0,0,5.49,1.8,47.8,47.8,0,0,1,6.62,1.68q9.52,3.28,9.53,11.76a11.06,11.06,0,0,1-5.14,9.41q-5.13,3.63-13.3,3.63a23,23,0,0,1-9.68-1.95,16.11,16.11,0,0,1-6.64-5.31,12,12,0,0,1-2.39-7.07h12.31a5.06,5.06,0,0,0,1.95,4.27,8,8,0,0,0,4.81,1.35,6.32,6.32,0,0,0,4-1.09A3.5,3.5,0,0,0,564.23,180.76Z" transform="translate(-58.41 -133.06)"/><path d="M591.22,179.86a7.51,7.51,0,0,1,5.19,1.85,6.48,6.48,0,0,1,0,9.5,8.21,8.21,0,0,1-10.41,0,6.48,6.48,0,0,1,0-9.46A7.44,7.44,0,0,1,591.22,179.86Z" transform="translate(-58.41 -133.06)"/><path d="M649.62,139.47a5.85,5.85,0,0,1,2-4.61,8.61,8.61,0,0,1,10.54,0,6.23,6.23,0,0,1,0,9.22,8.65,8.65,0,0,1-10.54,0A5.87,5.87,0,0,1,649.62,139.47Zm14,53.16H650.4V150.37h13.2Z" transform="translate(-58.41 -133.06)"/><path d="M65.45,136.25a1.19,1.19,0,0,0,1-.49h-2A1.2,1.2,0,0,0,65.45,136.25Z" transform="translate(-58.41 -133.06)"/><path d="M65.43,163.78a1.16,1.16,0,0,0-1.11.64,4.34,4.34,0,0,0-.37,1.91v3.27a4.6,4.6,0,0,0,.36,2.1,1.31,1.31,0,0,0,2.26,0,4.49,4.49,0,0,0,.37-2v-3.16a4.63,4.63,0,0,0-.36-2.07A1.22,1.22,0,0,0,65.43,163.78Z" transform="translate(-58.41 -133.06)"/><path d="M99.68,148.82a24.12,24.12,0,0,0-9.4-9.65,27,27,0,0,0-13.55-3.41H69.48a4.52,4.52,0,0,1-.75,1.37,4.53,4.53,0,0,1-6.58,0,4.58,4.58,0,0,1-.75-1.36h-3v56.87H77.12A26.32,26.32,0,0,0,90.5,189.1a24.14,24.14,0,0,0,9.29-9.69,29.33,29.33,0,0,0,3.3-14v-2.61A29.11,29.11,0,0,0,99.68,148.82Zm-38-3.26,5.62-1.94h.27v12.8h-3V147l-2.92.85Zm5.89,47h-3v-9.45l-2.92.85v-2.25l5.62-1.94h.27Zm2.32-23.28a6.1,6.1,0,0,1-1.17,4,4,4,0,0,1-3.28,1.41,4.06,4.06,0,0,1-3.3-1.42,6.08,6.08,0,0,1-1.17-4V166.9a6.15,6.15,0,0,1,1.16-4,4.57,4.57,0,0,1,6.59,0,6.13,6.13,0,0,1,1.17,4Zm19.21-3.84q0,8.29-3.17,12.49c-2.1,2.8-5.13,4.19-9.06,4.19H72.12V146.34h4.61c4,0,7.11,1.4,9.21,4.18s3.17,6.93,3.17,12.42Z" transform="translate(-58.41 -133.06)"/><path d="M256.34,162.79a50.4,50.4,0,0,0-9.69-4.08c-3.93-1.27-6.68-2.49-8.24-3.68a7.64,7.64,0,0,1-1.17-1.07v2.46h-3V147l-2.91.85v-2.25l5.61-1.94h.27v4.21a6.19,6.19,0,0,1,.95-.88,9.36,9.36,0,0,1,5.8-1.62,8.33,8.33,0,0,1,5.76,1.91,6.87,6.87,0,0,1,2.13,5.39h13.67a16.27,16.27,0,0,0-2.69-9.24,17.49,17.49,0,0,0-7.56-6.23,26.51,26.51,0,0,0-11-2.18,35.18,35.18,0,0,0-5,.35,4.61,4.61,0,0,1-.89,1.8,4,4,0,0,1-3.28,1.41,4.08,4.08,0,0,1-3-1.16,17.33,17.33,0,0,0-6.9,5.23,13.42,13.42,0,0,0-2.75,8.34q0,8.36,8.55,13.55a4.59,4.59,0,0,1,.83-1.6,4.57,4.57,0,0,1,6.59,0,6.13,6.13,0,0,1,1.16,4v1.51q1.27.47,2.67.93a26.47,26.47,0,0,1,7.48,3.48,5.62,5.62,0,0,1,2.13,4.68,4.85,4.85,0,0,1-2,4.13,8.89,8.89,0,0,1-5.37,1.46c-3.25,0-5.66-.62-7.26-1.83v11.25h-.51a32.85,32.85,0,0,0,7.77.89q9.81,0,15.43-4.26a13.86,13.86,0,0,0,5.62-11.71Q265.55,168.1,256.34,162.79Z" transform="translate(-58.41 -133.06)"/><path d="M235.84,136l-.74.21h0A1.22,1.22,0,0,0,235.84,136Z" transform="translate(-58.41 -133.06)"/><path d="M234.27,183.07l-2.91.85v-2.25l4.69-1.62a9.36,9.36,0,0,1-1.58-5.46,4.26,4.26,0,0,1-1.42-.4H220.71a17.73,17.73,0,0,0,2.83,9.95,18.89,18.89,0,0,0,8.44,6.79c.75.33,1.51.62,2.29.88Z" transform="translate(-58.41 -133.06)"/><path d="M235.1,163.78a1.16,1.16,0,0,0-1.11.64,3.63,3.63,0,0,0-.35,1.53c.89.43,1.88.87,3,1.32v-.74a4.63,4.63,0,0,0-.36-2.07A1.21,1.21,0,0,0,235.1,163.78Z" transform="translate(-58.41 -133.06)"/><path d="M413.54,153.53q-3.26-3.94-9.86-3.95a14.39,14.39,0,0,0-11.12,4.62v1.93a6.09,6.09,0,0,1-1.16,4,4.54,4.54,0,0,1-6.59,0,6.08,6.08,0,0,1-1.17-4V153.8a6.64,6.64,0,0,1,.8-3.43h-5.6v42.26h4.83c0-.13,0-.25,0-.39V189.9a6.1,6.1,0,0,1,1.17-4,4.57,4.57,0,0,1,6.59,0,4.89,4.89,0,0,1,.6,1V162.79a6.28,6.28,0,0,1,5.74-3q3.4,0,4.69,1.5a7.16,7.16,0,0,1,1.29,4.71v26.68h3.22a5.2,5.2,0,0,1,2.31,0h7.67V165.4Q416.8,157.48,413.54,153.53Zm-23.3,25.89h-3V170l-2.91.85v-2.25l5.61-1.94h.27Zm20,8h-3V178l-2.91.85v-2.25l5.61-1.94h.27Zm2.32-23.29a6.09,6.09,0,0,1-1.16,4,4.54,4.54,0,0,1-6.59,0,6.08,6.08,0,0,1-1.17-4V161.8a6.08,6.08,0,0,1,1.17-4,4.54,4.54,0,0,1,6.59,0,6.08,6.08,0,0,1,1.16,4Z" transform="translate(-58.41 -133.06)"/><path d="M388.1,150.68a1.17,1.17,0,0,0-1.11.63,4.32,4.32,0,0,0-.38,1.91v3.27a4.6,4.6,0,0,0,.36,2.1,1.23,1.23,0,0,0,1.15.66,1.18,1.18,0,0,0,1.11-.64,4.33,4.33,0,0,0,.37-2v-3.16a4.55,4.55,0,0,0-.36-2.06A1.19,1.19,0,0,0,388.1,150.68Z" transform="translate(-58.41 -133.06)"/><path d="M408.1,158.68a1.17,1.17,0,0,0-1.11.63,4.32,4.32,0,0,0-.38,1.91v3.27a4.6,4.6,0,0,0,.36,2.1,1.23,1.23,0,0,0,1.15.66,1.18,1.18,0,0,0,1.11-.64,4.33,4.33,0,0,0,.37-2v-3.16a4.55,4.55,0,0,0-.36-2.06A1.19,1.19,0,0,0,408.1,158.68Z" transform="translate(-58.41 -133.06)"/><path d="M389.6,189.53a4.63,4.63,0,0,0-.36-2.07,1.21,1.21,0,0,0-1.14-.68,1.16,1.16,0,0,0-1.11.64,4.32,4.32,0,0,0-.38,1.91v3.3h3Z" transform="translate(-58.41 -133.06)"/><path d="M502.24,170.05v.37h-3v-1.69l-.32-.12a47.8,47.8,0,0,0-6.62-1.68,16.31,16.31,0,0,1-5.49-1.8,3.29,3.29,0,0,1-1.72-2.85,3.56,3.56,0,0,1,1.41-2.87,5.31,5.31,0,0,1,3.48-1.15c3.56,0,5.35,1.69,5.35,5.07h3.91V161l-2.91.85v-2.25l5.61-1.94h.27v5.71h6.32a11.85,11.85,0,0,0-5.08-10,17,17,0,0,0-1.73-1.11,4.93,4.93,0,0,1-1.63.28,4,4,0,0,1-3.31-1.42,4.63,4.63,0,0,1-.56-.91,29.25,29.25,0,0,0-6.2-.63q-7.79,0-12.58,3.77a11.68,11.68,0,0,0-4.81,9.59,10.29,10.29,0,0,0,1.68,5.82,13.49,13.49,0,0,0,4.89,4.32,30.22,30.22,0,0,0,8.12,2.87,26.64,26.64,0,0,1,6.68,2.11,3.21,3.21,0,0,1,1.66,2,5.57,5.57,0,0,1,1.12-3.17,4.57,4.57,0,0,1,6.59,0,6.13,6.13,0,0,1,1.16,4v2.33a6.09,6.09,0,0,1-1.16,4,4,4,0,0,1-3.28,1.41,4.06,4.06,0,0,1-3.31-1.42,6.08,6.08,0,0,1-1.17-4v-1.47a3.47,3.47,0,0,1-1.2,1.84,6.32,6.32,0,0,1-4,1.09,8,8,0,0,1-4.81-1.35,5.06,5.06,0,0,1-1.95-4.27h-12.3a12,12,0,0,0,2.38,7.07,16.17,16.17,0,0,0,6.64,5.31,23,23,0,0,0,9.69,1.95q8.16,0,13.3-3.63a11.07,11.07,0,0,0,5.13-9.41C508.48,175.79,506.4,172.36,502.24,170.05Z" transform="translate(-58.41 -133.06)"/><path d="M500.12,186.36a1.18,1.18,0,0,0,1.11-.64,4.36,4.36,0,0,0,.37-2v-3.16a4.63,4.63,0,0,0-.36-2.07,1.21,1.21,0,0,0-1.14-.68,1.16,1.16,0,0,0-1.11.64,4.32,4.32,0,0,0-.38,1.91v3.27a4.6,4.6,0,0,0,.36,2.1A1.23,1.23,0,0,0,500.12,186.36Z" transform="translate(-58.41 -133.06)"/><path d="M638.1,177.78a1.16,1.16,0,0,0-1.11.64,4.32,4.32,0,0,0-.38,1.91v3.27a4.6,4.6,0,0,0,.36,2.1,1.23,1.23,0,0,0,1.15.66,1.18,1.18,0,0,0,1.11-.64,4.36,4.36,0,0,0,.37-2v-3.16a4.63,4.63,0,0,0-.36-2.07A1.21,1.21,0,0,0,638.1,177.78Z" transform="translate(-58.41 -133.06)"/><path d="M642.48,184.53a5.25,5.25,0,0,1-1.08,2.71,4,4,0,0,1-3.28,1.41,4.06,4.06,0,0,1-3.31-1.42,6.08,6.08,0,0,1-1.17-4V180.9a6.1,6.1,0,0,1,1.17-4,4.57,4.57,0,0,1,6.59,0,5.28,5.28,0,0,1,1,2.48v-15a13.72,13.72,0,0,0-4.81-10.82q-4.68-3.94-12.77-3.95t-13.3,3.83a11.78,11.78,0,0,0-5.21,10H619.5q0-4.63,4.69-4.63c3.36,0,5,1.94,5,5.84v2.24h-4.07q-9.69,0-14.76,3.52t-5.08,10.39a11.5,11.5,0,0,0,4.18,9.08,15,15,0,0,0,10.16,3.61q6.51,0,10.15-4.57a15,15,0,0,0,1.25,3.79h13.17V192A17.32,17.32,0,0,1,642.48,184.53Zm-8.12-25,5.61-1.94h.27v12.8h-3V161l-2.91.85Zm-5.13,21A6.58,6.58,0,0,1,626.9,183a7.28,7.28,0,0,1-4.08,1.06,4.37,4.37,0,0,1-3.09-1.12,3.79,3.79,0,0,1-1.21-2.91q0-6.16,6.88-6.17h3.83Z" transform="translate(-58.41 -133.06)"/><path d="M315.48,144.08a8.65,8.65,0,0,0,10.54,0,6.25,6.25,0,0,0,0-9.22,7.1,7.1,0,0,0-3.61-1.66,8.88,8.88,0,0,1,.15,1.6v2.33a6.09,6.09,0,0,1-1.16,4,4.54,4.54,0,0,1-6.59,0,5.78,5.78,0,0,1-1.13-3.41,6.62,6.62,0,0,0-.24,1.76A5.88,5.88,0,0,0,315.48,144.08Z" transform="translate(-58.41 -133.06)"/><path d="M316.61,134.22v3.27a4.6,4.6,0,0,0,.36,2.1,1.23,1.23,0,0,0,1.15.66,1.18,1.18,0,0,0,1.11-.64,4.33,4.33,0,0,0,.37-2v-3.16a6.74,6.74,0,0,0-.1-1.27,7.61,7.61,0,0,0-2.88.9A1,1,0,0,1,316.61,134.22Z" transform="translate(-58.41 -133.06)"/><path d="M318.12,176.36a1.18,1.18,0,0,0,1.11-.64,4.36,4.36,0,0,0,.37-2v-3.16a4.63,4.63,0,0,0-.36-2.07,1.21,1.21,0,0,0-1.14-.68,1.16,1.16,0,0,0-1.11.64,4.32,4.32,0,0,0-.38,1.91v3.27a4.6,4.6,0,0,0,.36,2.1A1.23,1.23,0,0,0,318.12,176.36Z" transform="translate(-58.41 -133.06)"/><path d="M320.24,160.42h-3V151l-2.91.85v-1.44h-.13v17.5a4.45,4.45,0,0,1,.58-1,4.57,4.57,0,0,1,6.59,0,6.13,6.13,0,0,1,1.16,4v2.33a6.09,6.09,0,0,1-1.16,4,4,4,0,0,1-3.28,1.41,4.06,4.06,0,0,1-3.31-1.42,4.23,4.23,0,0,1-.58-1v16.37h3v-5.56l-2.91.85v-2.25l5.61-1.94h.27v8.9h7.19V150.37h-7.19Z" transform="translate(-58.41 -133.06)"/><path d="M214.62,183.06V164.35a13.72,13.72,0,0,0-4.81-10.82q-4.68-3.94-12.77-3.95a27.48,27.48,0,0,0-6.21.68,4.2,4.2,0,0,1,.57.55,6.08,6.08,0,0,1,1.16,4v2.33a6.09,6.09,0,0,1-1.16,4,4.54,4.54,0,0,1-6.59,0,6.08,6.08,0,0,1-1.17-4V154.8a9.94,9.94,0,0,1,.11-1.4h0a11.79,11.79,0,0,0-5.22,10h13.17q0-4.63,4.68-4.63c3.36,0,5,1.94,5,5.84v2.24h-4.06q-9.69,0-14.76,3.52t-5.08,10.39a11.5,11.5,0,0,0,4.18,9.08,14.68,14.68,0,0,0,1.95,1.42v-.32a6.1,6.1,0,0,1,1.17-4,4.57,4.57,0,0,1,6.59,0,6.13,6.13,0,0,1,1.16,4v2.47a12,12,0,0,0,9.44-4.54,14.61,14.61,0,0,0,1.25,3.79h13.16V192Q214.7,188.88,214.62,183.06Zm-24.38-2.64h-3V171l-2.91.85v-2.25l5.61-1.94h.27Zm11.17.18a6.55,6.55,0,0,1-2.32,2.38A7.28,7.28,0,0,1,195,184a4.37,4.37,0,0,1-3.09-1.12,3.75,3.75,0,0,1-1.21-2.91q0-6.16,6.88-6.17h3.82Z" transform="translate(-58.41 -133.06)"/><path d="M188.1,151.68a1.17,1.17,0,0,0-1.11.63,4.32,4.32,0,0,0-.38,1.91v3.27a4.6,4.6,0,0,0,.36,2.1,1.23,1.23,0,0,0,1.15.66,1.18,1.18,0,0,0,1.11-.64,4.33,4.33,0,0,0,.37-2v-3.16a4.55,4.55,0,0,0-.36-2.06A1.19,1.19,0,0,0,188.1,151.68Z" transform="translate(-58.41 -133.06)"/><path d="M188.1,187.78a1.16,1.16,0,0,0-1.11.64,4.32,4.32,0,0,0-.38,1.91v2.27a15.29,15.29,0,0,0,3,.66v-2.73a4.63,4.63,0,0,0-.36-2.07A1.21,1.21,0,0,0,188.1,187.78Z" transform="translate(-58.41 -133.06)"/></svg>